<?xml version="1.0" standalone="no"?>
<!DOCTYPE svg PUBLIC "-//W3C//DTD SVG 1.1//EN" "http://www.w3.org/Graphics/SVG/1.1/DTD/svg11.dtd" >
<svg>
<metadata>
Created by FontForge 20120731 at Sun May 27 08:42:09 2018
 By www
</metadata>
<defs>
<font id="FSMe-Bold" horiz-adv-x="266" >
  <font-face 
    font-family="FS Me"
    font-weight="700"
    font-stretch="normal"
    units-per-em="1024"
    panose-1="2 11 6 0 5 3 2 2 2 4"
    ascent="819"
    descent="-205"
    x-height="541"
    cap-height="737"
    bbox="-80 -281 1344 1003"
    underline-thickness="0"
    underline-position="-280"
    unicode-range="U+0001-2122"
  />
<missing-glyph horiz-adv-x="512" 
 />
    <glyph glyph-name=".notdef" horiz-adv-x="512" 
 />
    <glyph glyph-name="uni0000" 
d="M0 1v-1v1z" />
    <glyph glyph-name="uni0000" 
d="M0 1v-1v1z" />
    <glyph glyph-name="uni0001" 
d="M0 1v-1v1z" />
    <glyph glyph-name="uni0002" 
d="M0 1v-1v1z" />
    <glyph glyph-name="uni0003" 
d="M0 1v-1v1z" />
    <glyph glyph-name="uni0004" 
d="M0 1v-1v1z" />
    <glyph glyph-name="uni0005" 
d="M0 1v-1v1z" />
    <glyph glyph-name="uni0006" 
d="M0 1v-1v1z" />
    <glyph glyph-name="uni0007" 
d="M0 1v-1v1z" />
    <glyph glyph-name="uni0008" 
d="M0 1v-1v1z" />
    <glyph glyph-name="uni0009" unicode="&#x9;" horiz-adv-x="260" 
d="M0 1v-1v1z" />
    <glyph glyph-name="uni000A" unicode="&#xa;" 
d="M0 1v-1v1z" />
    <glyph glyph-name="uni000B" 
d="M0 1v-1v1z" />
    <glyph glyph-name="uni000C" 
d="M0 1v-1v1z" />
    <glyph glyph-name="uni000D" unicode="&#xd;" horiz-adv-x="0" 
d="M0 1v-1v1z" />
    <glyph glyph-name="uni000E" 
d="M0 1v-1v1z" />
    <glyph glyph-name="uni000F" 
d="M0 1v-1v1z" />
    <glyph glyph-name="uni0010" 
d="M0 1v-1v1z" />
    <glyph glyph-name="uni0011" 
d="M0 1v-1v1z" />
    <glyph glyph-name="uni0012" 
d="M0 1v-1v1z" />
    <glyph glyph-name="uni0013" 
d="M0 1v-1v1z" />
    <glyph glyph-name="uni0014" 
d="M0 1v-1v1z" />
    <glyph glyph-name="uni0015" 
d="M0 1v-1v1z" />
    <glyph glyph-name="uni0016" 
d="M0 1v-1v1z" />
    <glyph glyph-name="uni0017" 
d="M0 1v-1v1z" />
    <glyph glyph-name="uni0018" 
d="M0 1v-1v1z" />
    <glyph glyph-name="uni0019" 
d="M0 1v-1v1z" />
    <glyph glyph-name="uni001A" 
d="M0 1v-1v1z" />
    <glyph glyph-name="uni001B" 
d="M0 1v-1v1z" />
    <glyph glyph-name="uni001C" 
d="M0 1v-1v1z" />
    <glyph glyph-name="uni001D" 
d="M0 1v-1v1z" />
    <glyph glyph-name="uni001E" 
d="M0 1v-1v1z" />
    <glyph glyph-name="uni001F" 
d="M0 1v-1v1z" />
    <glyph glyph-name="space" unicode=" " horiz-adv-x="260" 
d="M0 1v-1v1z" />
    <glyph glyph-name="exclam" unicode="!" horiz-adv-x="306" 
d="M64 74v0q6 79 86 86q84 -7 90 -86q-6 -78 -90 -86q-80 8 -86 86v0zM144 736v0h12q44 0 58 -4t12 -14l-16 -463q4 -14 -48 -12h-20q-52 -2 -48 12l-18 463q-2 10 12 14t57 4v0v0v1z" />
    <glyph glyph-name="quotedbl" unicode="&#x22;" horiz-adv-x="443" 
d="M118 736v0h6q42 0 54 -3t10 -11l-14 -259q4 -10 -48 -10h-9q-54 0 -48 10l-14 259q-2 8 10 11t54 3v0h-1zM322 736v0h6q42 0 54 -3t10 -11l-14 -259q4 -10 -48 -10h-9q-54 0 -48 10l-14 259q-2 8 10 11t54 3v0v0v1z" />
    <glyph glyph-name="numbersign" unicode="#" horiz-adv-x="604" 
d="M265 436v0l-28 -132h102l28 132h-102v0zM255 736v0h22q56 0 46 -10l-36 -177h102l37 177q0 5 8 8q9 3 40 3h22q56 0 46 -10l-36 -177h62q10 2 14 -6q4 -7 4 -47v-3q0 -38 -4 -48t-14 -8h-83l-28 -132h60q10 2 14 -6q4 -7 4 -47v-3q0 -38 -4 -48t-14 -8h-82h-1l-38 -181
q0 -5 -9 -8q-8 -3 -40 -3h-22q-56 0 -46 10l37 181h-102l-38 -181q0 -5 -9 -8t-40 -3h-22q-56 0 -46 10l37 181h-62q-10 -2 -14 8t-4 48v3q0 40 4 47q4 8 14 6h84l28 132h-60q-10 -2 -14 8t-4 48v3q0 40 4 47q4 8 14 6h83l37 177q0 5 9 8t40 3v0v0v1v-1z" />
    <glyph glyph-name="dollar" unicode="$" horiz-adv-x="604" 
d="M322 848v0h3q44 0 54 -4q11 -4 9 -12v-91q71 -12 125 -49q22 -10 -4 -57l-10 -20q-23 -50 -37 -31q-62 42 -127 43q-92 -6 -96 -84q2 -38 36 -62t80 -46q70 -32 126 -81t59 -143q0 -86 -47 -144q-48 -58 -142 -74v-91q2 -8 -9 -12q-10 -4 -54 -4h-3q-46 0 -57 4t-9 12v93
q-93 18 -148 64q-22 11 2 56l12 24q23 47 40 31q75 -56 155 -59q106 2 112 88q-2 46 -37 72q-35 25 -83 47q-68 30 -123 76q-54 47 -57 135q1 84 47 136q46 53 118 71v95q-2 8 9 12t56 4v0v0v1z" />
    <glyph glyph-name="percent" unicode="%" horiz-adv-x="992" 
d="M239 656v0q-72 -2 -72 -123q2 -122 65 -118q72 2 72 123q-2 122 -65 118v0zM240 748v0q78 0 126 -52t50 -154q-2 -106 -52 -162t-133 -56q-78 0 -126 52t-50 154q2 106 52 162t133 56v0zM730 736v0h2q43 0 51 -4t0 -14l-446 -701q-5 -19 -73 -17h-7q-64 0 -46 18l446 701
q6 10 20 14q15 4 52 4v0zM759 320v0v0q-72 -2 -72 -122q2 -121 65 -117q72 2 72 122q-2 122 -65 118v0v-1zM760 410v0q78 0 126 -52t50 -154q-2 -106 -52 -162t-133 -56q-78 0 -126 52t-50 154q2 106 52 162t133 56v0v0v1v-1z" />
    <glyph glyph-name="ampersand" unicode="&#x26;" horiz-adv-x="713" 
d="M497 658v0l-8 -16q-18 -43 -34 -32q-43 22 -95 23q-93 -8 -93 -86q-3 -46 55 -114q57 -66 171 -172q26 67 32 155q0 8 10 12t46 4h12q62 1 58 -17q-6 -135 -60 -242q46 -40 86 -70q17 -10 -24 -58l-8 -10q-42 -50 -52 -32q-40 28 -84 66q-84 -76 -226 -78q-103 0 -173 58
q-71 58 -74 166q4 136 130 197q-46 66 -46 138q1 86 61 143q60 56 164 58q91 -2 155 -44q16 -7 -2 -47v0zM231 330v0v0q-47 -40 -47 -106q6 -111 128 -115q60 0 106 38q-110 101 -186 183v0v0v1z" />
    <glyph glyph-name="quotesingle" unicode="'" horiz-adv-x="238" 
d="M118 736v0h6q42 0 54 -3t10 -11l-14 -259q4 -10 -48 -10h-9q-54 0 -48 10l-14 259q-2 8 10 11t54 3v0v0v1z" />
    <glyph glyph-name="parenleft" unicode="(" horiz-adv-x="353" 
d="M282 773v0l14 -9q28 -18 33 -26t0 -13q-52 -75 -84 -179t-33 -230q1 -126 33 -230t84 -179q5 -5 0 -13t-33 -26l-14 -9q-47 -30 -49 -16q-72 68 -126 192q-53 123 -55 280q2 154 55 278q54 124 126 192q2 14 49 -16v0v0v1v3z" />
    <glyph glyph-name="parenright" unicode=")" horiz-adv-x="353" 
d="M56 764v0l14 9q47 30 49 16q72 -68 126 -192q53 -124 55 -278q-2 -157 -55 -280q-54 -124 -126 -192q-2 -14 -49 16l-14 9q-28 18 -33 26t0 13q52 75 84 179t33 230q-1 126 -33 230t-84 179q-5 5 0 13t33 26v0v0v1v-5z" />
    <glyph glyph-name="asterisk" unicode="*" horiz-adv-x="432" 
d="M62 662v0l110 -47l-10 118q-4 18 46 15h13q50 3 46 -15l-11 -118l116 47q17 10 29 -38l4 -13q16 -48 -2 -48l-121 -30l83 -93q16 -12 -24 -40l-12 -10q-39 -31 -46 -13l-68 106l-62 -106q-7 -18 -46 13l-12 10q-40 26 -24 40l78 93l-115 30q-18 0 -2 48l4 13q12 48 28 38
v0v0v1z" />
    <glyph glyph-name="plus" unicode="+" horiz-adv-x="604" 
d="M61 416v0h180v178q-1 8 9 11q10 4 44 4h15q34 0 44 -4q10 -3 9 -11v-178h180q8 1 12 -9q3 -10 3 -44v-15q0 -34 -3 -44q-4 -10 -12 -9h-180v-178q1 -8 -9 -11q-10 -4 -44 -4h-15q-34 0 -44 4q-10 3 -9 11v178h-180q-8 -1 -12 9q-3 10 -3 44v15q0 34 3 44q4 10 12 9v0v0v1
v-1z" />
    <glyph glyph-name="comma" unicode="," horiz-adv-x="245" 
d="M44 -187v0l-16 16q-18 12 -5 26q64 89 57 124q-3 33 -23 50t-24 53q0 28 22 50t58 23q86 -6 92 -102q-5 -130 -129 -243q-14 -14 -30 1v0v0v1z" />
    <glyph glyph-name="hyphen" unicode="-" horiz-adv-x="399" 
d="M49 356v0h301q8 1 11 -9q4 -10 4 -44v-15q0 -34 -4 -44q-3 -10 -11 -9h-301q-8 -1 -12 9q-3 10 -3 44v15q0 34 3 44q4 10 12 9v0v0v1v-1z" />
    <glyph glyph-name="period" unicode="." horiz-adv-x="245" 
d="M36 74v0q6 79 88 86q83 -7 89 -86q-6 -78 -89 -86q-82 8 -88 86v0v0v1v-1z" />
    <glyph glyph-name="slash" unicode="/" horiz-adv-x="378" 
d="M293 736v0h13q43 0 53 -4t6 -14l-213 -701q2 -20 -67 -18h-14q-43 0 -53 4t-5 14l213 701q-2 20 68 18v0v0v1z" />
    <glyph glyph-name="zero" unicode="0" horiz-adv-x="604" 
d="M308 628v0q-122 -7 -120 -266q0 -257 112 -254q122 7 120 266q0 257 -112 254v0zM312 748v0q121 0 188 -92t68 -274q-8 -386 -272 -393q-121 0 -188 92t-68 274q8 386 272 393v0v0v1v-1z" />
    <glyph glyph-name="one" unicode="1" horiz-adv-x="604" 
d="M75 634v0l178 82q45 22 73 20h25q42 1 36 -15v-608h120q6 1 9 -9q2 -9 2 -43v-10q0 -34 -2 -43q-3 -10 -9 -9h-393q-7 -1 -9 9q-3 9 -3 43v10q0 34 3 43q2 10 9 9h133v471l-126 -54q-14 -14 -36 40l-6 14q-22 48 -4 50v0v0v1v-1z" />
    <glyph glyph-name="two" unicode="2" horiz-adv-x="604" 
d="M92 616v0l-12 22q-21 34 1 46q85 60 195 64q108 -1 168 -57t61 -154q1 -68 -40 -141t-139 -181l-83 -93h258q6 1 9 -9q3 -9 3 -42v-19q0 -33 -3 -42q-3 -10 -9 -9h-393q-51 -2 -44 16v34q-4 34 22 66l138 167q70 84 102 140t32 109q-4 98 -99 101q-64 -4 -127 -46
q-12 -15 -38 29v0v0v1z" />
    <glyph glyph-name="three" unicode="3" horiz-adv-x="604" 
d="M114 631v0l-10 18q-25 42 -3 50q76 47 178 49q102 -2 160 -56q57 -55 58 -141q-3 -106 -113 -154q128 -40 133 -179q-1 -96 -59 -156q-66 -70 -207 -72q-116 2 -196 54q-18 5 4 48l10 18q22 48 36 36q68 -40 142 -40q117 3 123 111q0 52 -28 83q-36 32 -132 30h-22
q-7 -1 -10 8q-4 10 -4 44v9q0 34 4 44q3 9 10 8h26q80 0 112 28q32 26 33 74q-6 88 -96 91q-56 -2 -108 -30q-15 -14 -37 29v0v0v1z" />
    <glyph glyph-name="four" unicode="4" horiz-adv-x="604" 
d="M300 736v0h12q42 0 54 -4t8 -12l-182 -437h144v123q-1 9 12 12q12 4 54 4h5q75 2 69 -14v-123h76q8 1 11 -8q2 -9 2 -42v-16q1 -62 -13 -54h-76v-148q6 -17 -69 -15h-5q-42 0 -54 3q-13 4 -12 13v148h-249q-51 -2 -44 16v42q-2 28 8 56l182 444q2 10 15 13t52 3v0v0v1v-5
z" />
    <glyph glyph-name="five" unicode="5" horiz-adv-x="604" 
d="M156 736v0h322q7 1 9 -9q3 -9 3 -42v-19q0 -33 -3 -42q-2 -10 -9 -9h-238v-142q20 2 42 2q108 0 174 -58t68 -174q-2 -113 -66 -179q-76 -76 -204 -77q-111 2 -189 54q-22 6 4 54l9 18q19 43 33 30q64 -40 142 -40q117 4 124 134q-1 128 -136 130q-54 0 -108 -11
q-24 -6 -24 13v351q-7 18 47 16v0v0v1v-1z" />
    <glyph glyph-name="six" unicode="6" horiz-adv-x="604" 
d="M492 660v0l-13 -26q-20 -38 -30 -26q-46 24 -90 25q-60 0 -92 -43q-42 -54 -54 -166q58 45 134 48q95 -2 149 -62t55 -160q-1 -106 -67 -182t-180 -80q-128 2 -187 90t-58 235q1 199 77 315t212 118q91 -4 141 -42q20 -12 0 -44v0h3zM208 322v0v-14q3 -205 103 -205
q44 1 72 39t29 100q-2 114 -102 114q-55 -2 -103 -34v0v0v1z" />
    <glyph glyph-name="seven" unicode="7" horiz-adv-x="604" 
d="M83 736v0h414q52 1 44 -21v-43q2 -24 -20 -73l-242 -584q-2 -10 -16 -13t-54 -3h-37q-52 -2 -43 15l264 600h-310q-7 -1 -9 9q-3 9 -3 42v19q0 33 3 42q2 10 9 9v0v0v1z" />
    <glyph glyph-name="eight" unicode="8" horiz-adv-x="604" 
d="M177 371v0v0q-82 52 -89 170q2 90 62 146t162 58q96 -1 155 -51q58 -50 60 -137q-5 -98 -107 -160q54 -26 92 -72t40 -122q-2 -108 -74 -161q-72 -54 -184 -54q-101 0 -169 50t-70 150q8 124 124 182v0zM266 321v0v0q-72 -51 -70 -123q8 -92 106 -94q101 4 107 92
q-2 48 -44 75q-42 28 -99 52v0v-2zM328 442v0v0q56 40 63 108q-4 76 -84 82q-77 -8 -81 -80q1 -40 29 -65q28 -26 72 -45v0v0v1z" />
    <glyph glyph-name="nine" unicode="9" horiz-adv-x="604" 
d="M96 78v0l13 26q21 39 31 27q46 -26 104 -27q84 2 117 68q30 59 38 161q-58 -45 -138 -49q-95 2 -151 59t-57 153q1 104 64 176t176 75q141 -2 199 -92t56 -235q-1 -214 -89 -330q-74 -98 -202 -100q-105 2 -161 44q-20 12 0 44v0zM400 430v0q-2 207 -106 203
q-92 -6 -100 -124q4 -111 104 -111q54 2 102 34v0v0v1v-3z" />
    <glyph glyph-name="colon" unicode=":" horiz-adv-x="245" 
d="M36 74v0q6 79 88 86q83 -7 89 -86q-6 -78 -89 -86q-82 8 -88 86v0zM36 442v0q6 79 88 86q83 -7 89 -86q-6 -78 -89 -86q-82 8 -88 86v0v0v1v-1z" />
    <glyph glyph-name="semicolon" unicode=";" horiz-adv-x="245" 
d="M36 442v0q6 79 88 86q83 -7 89 -86q-6 -78 -89 -86q-82 8 -88 86v0zM50 -186v0l-22 15q-18 12 -5 26q64 89 57 124q-3 33 -23 50t-23 53q0 28 21 50q22 22 58 23q84 -6 94 -100q-5 -130 -129 -243q-14 -14 -30 1v0v0v1h2z" />
    <glyph glyph-name="less" unicode="&#x3c;" horiz-adv-x="604" 
d="M79 410v0l393 232q16 18 46 -34l4 -8q18 -30 20 -41q1 -12 -9 -16l-320 -188l320 -188q10 -4 9 -15q-2 -12 -20 -42l-4 -7q-30 -52 -46 -34l-393 232q-17 4 -17 49v10q0 44 17 50v0v0v1v-1z" />
    <glyph glyph-name="equal" unicode="=" horiz-adv-x="604" 
d="M84 540v0h435q8 1 11 -9q4 -10 4 -44v-15q0 -34 -4 -44q-3 -10 -11 -9h-435q-8 -1 -12 9t-4 44v15q0 34 4 44t12 9v0zM84 292v0h435q8 1 11 -9q4 -10 4 -44v-15q0 -34 -4 -44q-3 -10 -11 -9h-435q-8 -1 -12 9t-4 44v15q0 34 4 44t12 9v0v0v1v-1z" />
    <glyph glyph-name="greater" unicode="&#x3e;" horiz-adv-x="604" 
d="M82 602v0l4 8q30 52 46 34l394 -232q16 -6 16 -50v-10q0 -45 -16 -49l-394 -232q-16 -18 -46 34l-4 7q-18 30 -19 42q-2 11 8 15l320 188l-320 188q-10 4 -8 16q1 11 19 41v0v0v1v-1z" />
    <glyph glyph-name="question" unicode="?" horiz-adv-x="468" 
d="M104 74v0q6 79 88 86q83 -7 88 -86q-6 -78 -88 -86q-82 8 -88 86v0zM55 621v0l-12 26q-20 33 1 44q68 52 178 56q96 -1 154 -49t60 -136q-3 -82 -46 -130q-42 -47 -86 -85q-43 -38 -48 -92q1 -8 -9 -11t-44 -3h-20q-60 -2 -54 14v4q3 78 41 123t76 81t41 88q1 69 -85 73
q-60 -3 -110 -37q-15 -16 -38 30v0v0v1z" />
    <glyph glyph-name="at" unicode="@" horiz-adv-x="852" 
d="M514 514v0l6 21q12 14 46 13h18q60 0 49 -16q-11 -40 -31 -128l-17 -79q-4 -18 -4 -32q-1 -42 35 -42t66 46q29 46 31 130q0 102 -64 160q-65 58 -188 60q-148 -4 -229 -94q-80 -90 -81 -216q3 -139 85 -199q82 -61 203 -59q110 2 198 30q10 6 19 -30l4 -18q7 -30 -6 -32
q-48 -20 -110 -31q-62 -12 -124 -12q-180 1 -291 107q-89 86 -93 238q6 190 128 301q122 112 296 114q166 -2 262 -86t98 -230q0 -98 -58 -180t-164 -87q-94 4 -118 56q-42 -52 -114 -56q-72 2 -106 46t-34 106q0 85 52 160t150 80q62 -3 84 -41v0h2zM478 360v0l18 80
q-20 26 -52 24q-42 -2 -70 -43t-29 -99q1 -64 49 -66q28 -2 51 23q22 24 34 80v0v0v1h-1z" />
    <glyph glyph-name="A" unicode="A" horiz-adv-x="676" 
d="M330 736v0h10q41 0 54 -3q13 -4 15 -14l253 -702q5 -10 -7 -14t-56 -4h-12q-43 0 -59 4t-18 13l-58 168h-236l-56 -168q-2 -9 -17 -13t-58 -4h-10q-44 0 -56 4t-6 14l250 702q2 8 14 12t54 4v0zM264 334v0l-11 -34h160l-11 36q-26 82 -42 132t-26 88q-21 -76 -70 -223v0
v0v1z" />
    <glyph glyph-name="B" unicode="B" horiz-adv-x="618" 
d="M224 320v0v-201h52q74 -4 117 28q27 24 29 72q0 44 -24 69q-32 34 -123 32h-50v0h-1zM224 616v0v-180h37q64 0 96 28q27 24 28 68q0 37 -22 59q-26 28 -102 27h-37v0v-2zM120 736v0h136q162 4 233 -70q46 -48 46 -118q8 -87 -100 -155q132 -43 138 -174q0 -83 -50 -139
q-76 -82 -248 -80h-154q-54 -2 -47 16v704q-7 18 47 16v0v0v1z" />
    <glyph glyph-name="C" unicode="C" horiz-adv-x="600" 
d="M555 630v0l-13 -24q-22 -46 -36 -31q-64 46 -132 46q-176 -2 -182 -256q-2 -242 182 -248q70 0 138 36q18 16 36 -30l11 -25q25 -44 0 -52q-38 -24 -94 -40t-112 -17q-150 2 -232 100t-83 272q1 174 87 279t239 107q116 0 197 -62q14 -9 13 -19t-15 -35v0v0v1z" />
    <glyph glyph-name="D" unicode="D" horiz-adv-x="687" 
d="M224 616v0v-496h53q93 -4 157 47q62 63 62 202q-1 126 -48 183q-50 65 -168 64h-57v0h1zM120 736v0h155q192 2 281 -92q91 -91 95 -273q1 -186 -110 -292q-94 -84 -262 -78h-160q-54 -2 -47 16v705q-7 18 47 16v0v0v1z" />
    <glyph glyph-name="E" unicode="E" horiz-adv-x="579" 
d="M120 736v0h386q10 2 14 -7q4 -10 4 -48v-8q0 -37 -4 -47t-14 -9h-282v-184h238q10 2 14 -7q4 -10 4 -48v-8q0 -37 -4 -47t-14 -9h-238v-192h286q10 2 14 -7q4 -10 4 -48v-8q0 -37 -4 -47t-14 -9h-390q-54 -2 -47 16v705q-7 18 47 16v0v0v1v-5z" />
    <glyph glyph-name="F" unicode="F" horiz-adv-x="550" 
d="M120 736v0h386q10 2 14 -7q4 -10 4 -48v-8q0 -37 -4 -47t-14 -9h-282v-184h238q10 2 14 -7q4 -10 4 -48v-8q0 -37 -4 -47t-14 -9h-238v-298q6 -14 -71 -13h-12q-42 0 -56 2t-12 10v707q-7 18 47 16v0v0v1v-3z" />
    <glyph glyph-name="G" unicode="G" horiz-adv-x="682" 
d="M352 416v0h214q53 2 46 -16v-342q2 -13 -12 -21q-42 -21 -108 -35t-130 -14q-160 2 -242 101q-83 100 -83 282q2 179 96 278q92 98 244 100q128 -2 214 -67q12 -6 12 -18q0 -11 -18 -41l-12 -20q-27 -46 -37 -28q-64 46 -146 48q-192 -2 -194 -248q-3 -252 186 -260
q45 0 87 13v170h-112q-10 -2 -14 8t-4 48v8q0 40 4 48t14 6v0v0v1z" />
    <glyph glyph-name="H" unicode="H" horiz-adv-x="706" 
d="M141 736v0h12q77 2 71 -15v-288h257v288q-2 9 12 13q14 3 56 3h12q77 2 71 -15v-705q6 -17 -71 -15h-12q-42 0 -56 3q-14 4 -12 13v296h-257v-296q6 -17 -71 -15h-12q-42 0 -56 3q-14 4 -12 13v705q-2 9 12 13q14 3 56 3v0v0v1v-5z" />
    <glyph glyph-name="I" unicode="I" horiz-adv-x="421" 
d="M70 736v0h284q7 1 10 -8q2 -10 2 -44v-5q0 -34 -2 -44q-3 -9 -10 -8h-66v-521h66q7 1 10 -8q2 -10 2 -44v-5q0 -34 -2 -44q-3 -9 -10 -8h-284q-7 -1 -10 8q-2 10 -2 44v5q0 34 2 44q3 9 10 8h66v521h-66q-7 -1 -10 8q-2 10 -2 44v5q0 34 2 44q3 9 10 8v0v0v1v-1z" />
    <glyph glyph-name="J" unicode="J" horiz-adv-x="484" 
d="M329 736v0h12q77 1 71 -15v-476q0 -138 -56 -194q-61 -64 -174 -63q-83 2 -143 28q-17 4 -2 52l6 20q12 50 34 40q44 -15 86 -15q52 0 73 26q30 35 26 109v474q-2 8 12 12t56 4v0v0v1z" />
    <glyph glyph-name="K" unicode="K" horiz-adv-x="638" 
d="M141 736v0h12q77 1 71 -15v-285l28 30q137 150 203 256q4 8 16 11t50 3h12q44 0 56 -4t6 -13q-47 -108 -225 -297l238 -404q18 -20 -53 -19h-30q-47 0 -60 3t-17 12l-176 306l-50 -52v-254q6 -16 -71 -16h-12q-42 0 -56 3q-14 4 -12 13v705q-2 8 12 12t56 4v0v0v1h2z" />
    <glyph glyph-name="L" unicode="L" horiz-adv-x="528" 
d="M141 736v0h12q77 1 71 -15v-600h262q10 2 14 -7q4 -10 4 -48v-8q0 -37 -4 -47t-14 -9h-366q-54 -2 -47 16v705q-2 8 12 12t56 4v0v0v1v-4z" />
    <glyph glyph-name="M" unicode="M" horiz-adv-x="855" 
d="M174 736v0h12q41 0 55 -4t17 -14l96 -231q64 -157 79 -213q10 34 31 92t45 118l94 234q2 8 14 12t57 4h8q43 0 55 -3q13 -4 12 -14l28 -704q2 -9 -10 -13q-12 -3 -56 -3h-8q-42 0 -54 3t-10 11l-5 254q-2 62 -2 124t2 108q-12 -43 -34 -107t-47 -125l-55 -135
q-2 -10 -13 -14q-10 -4 -48 -4h-11q-38 0 -50 4t-14 13l-56 132q-28 64 -52 128t-36 106q3 -49 3 -117q1 -69 -1 -135l-7 -233q1 -10 -11 -12q-13 -2 -53 -2h-6q-46 0 -58 3q-11 4 -9 13l30 704q-1 10 11 13q12 4 56 4v0v0v1z" />
    <glyph glyph-name="N" unicode="N" horiz-adv-x="723" 
d="M134 736v0h6q42 0 55 -4t17 -12l183 -280q56 -85 80 -127q25 -42 40 -80q-3 40 -5 109q-2 70 -2 127v252q-2 8 11 12t54 4h7q74 1 67 -15v-705q2 -9 -8 -13q-11 -3 -51 -3h-6q-36 0 -50 3q-14 4 -19 14l-183 280q-58 88 -84 134q-27 45 -37 75q4 -40 6 -110t2 -126v-252
q8 -17 -65 -15h-6q-41 0 -55 3t-13 13v705q-2 10 8 13t50 3v0v0v1z" />
    <glyph glyph-name="O" unicode="O" horiz-adv-x="714" 
d="M366 624v0q-172 -4 -174 -262q0 -132 42 -192q42 -59 118 -58q172 4 174 262q0 132 -42 192q-42 59 -118 58v0zM368 748v0q139 2 224 -86q84 -88 86 -282q0 -180 -84 -284t-248 -106q-139 -2 -224 86q-84 88 -86 282q0 180 84 284t248 106v0v0v1v-1z" />
    <glyph glyph-name="P" unicode="P" horiz-adv-x="587" 
d="M120 736v0h126q174 8 255 -70q56 -56 56 -162q0 -104 -66 -173q-68 -69 -209 -71q-32 0 -57 2v-246q6 -17 -71 -15h-12q-42 0 -56 3q-14 4 -12 13v705q-7 18 47 16v0zM224 616v0v-233q24 -3 50 -3q74 0 104 38q26 34 26 86q0 47 -23 75q-31 38 -119 37h-39v0v0v1z" />
    <glyph glyph-name="Q" unicode="Q" horiz-adv-x="714" 
d="M610 -70v0l-17 -13q-50 -40 -59 -19q-43 40 -91 101q-44 -11 -96 -11q-139 -2 -224 87q-84 88 -86 282q0 179 84 283t248 106q139 2 224 -86q84 -88 86 -282q0 -215 -120 -319q31 -38 79 -81q18 -10 -28 -47v0v-1zM356 254v0l13 6q34 16 44 16t13 -10q21 -44 51 -93
q49 64 46 203q0 132 -42 191t-118 58q-172 -4 -174 -262q-6 -260 178 -250q-35 56 -55 103q-4 8 3 16q8 8 40 22v0v0v1z" />
    <glyph glyph-name="R" unicode="R" horiz-adv-x="630" 
d="M120 736v0h138q168 8 246 -70q50 -52 51 -149q-2 -144 -128 -208l24 -43q91 -160 158 -246q20 -20 -40 -21h-57q-48 -3 -64 15q-35 34 -126 204l-34 62h-65v-266q6 -17 -71 -15h-12q-42 0 -56 3q-14 4 -12 13v705q-7 18 47 16v0h1zM224 616v0v-218h50q72 1 103 34
q28 30 28 84q0 47 -24 71q-30 31 -108 29h-49v0v0v1v-1z" />
    <glyph glyph-name="S" unicode="S" horiz-adv-x="565" 
d="M486 637v0l-10 -20q-23 -50 -37 -32q-62 42 -127 43q-92 -6 -96 -84q2 -38 36 -62t80 -46q70 -32 126 -81q56 -50 59 -145q0 -100 -62 -160q-62 -61 -186 -63q-140 5 -220 69q-22 12 2 57l12 24q23 48 40 32q75 -56 155 -59q106 1 112 87q-2 46 -37 72t-83 48
q-68 30 -123 78q-54 47 -57 136q2 104 70 160t167 56q107 -1 185 -54q22 -10 -4 -57v0v0v1h-2z" />
    <glyph glyph-name="T" unicode="T" horiz-adv-x="555" 
d="M32 736v0h490q10 2 14 -7q4 -10 4 -48v-8q0 -37 -4 -47t-14 -9h-170v-600q6 -17 -71 -15h-12q-42 0 -56 3q-14 4 -12 13v600h-169q-10 -2 -14 8t-4 48v8q0 40 4 48t14 6v0v0v1v-1z" />
    <glyph glyph-name="U" unicode="U" horiz-adv-x="709" 
d="M137 736v0h12q77 1 71 -15v-444q0 -98 38 -134q34 -32 96 -31q63 0 98 36q39 38 40 130v444q-2 8 12 12t56 4h8q76 1 70 -15v-423q2 -164 -70 -233q-73 -76 -219 -76q-148 -1 -220 78q-62 60 -62 210v444q-2 8 12 12t56 4v0v0v1z" />
    <glyph glyph-name="V" unicode="V" horiz-adv-x="668" 
d="M87 736v0h18q46 0 60 -4t15 -14l90 -302q19 -66 38 -140q20 -74 33 -136q12 60 32 137q20 76 38 138l88 300q2 10 14 14t56 4h4q82 0 68 -18l-214 -697q-3 -12 -21 -17q-18 -4 -63 -4h-5q-52 0 -70 4t-20 16l-226 699q-4 10 8 14t55 4v0v0v1z" />
    <glyph glyph-name="W" unicode="W" horiz-adv-x="987" 
d="M96 736v0h14q44 0 58 -4q15 -4 16 -14l74 -300q33 -130 53 -253q6 50 18 120t26 134l68 298q1 10 15 14t57 4h10q44 0 58 -4q15 -4 16 -14l68 -290q16 -70 28 -144t20 -132q7 56 21 130t30 143l68 292q1 10 15 14t58 4h6q46 0 58 -4t8 -12l-186 -701q-1 -10 -15 -14
q-15 -4 -58 -4h-14q-46 0 -64 4t-20 14l-56 231q-16 69 -30 144t-22 138q-8 -64 -21 -136q-13 -73 -29 -140l-56 -237q-1 -10 -15 -14q-15 -4 -58 -4h-22q-46 0 -60 4t-16 14l-194 701q-4 10 9 14t61 4v0v0v1z" />
    <glyph glyph-name="X" unicode="X" horiz-adv-x="627" 
d="M84 736v0h42q38 0 52 -3t18 -11l68 -116q37 -62 61 -116q28 57 61 119l62 114q3 8 15 11t52 3h43q35 0 43 -4t2 -12l-131 -214q-42 -68 -80 -127q32 -43 66 -103l154 -260q18 -16 -54 -15h-42q-37 0 -51 3q-14 2 -18 10l-76 128q-38 65 -68 124q-27 -52 -63 -119
l-72 -132q-3 -8 -15 -10q-12 -3 -51 -3h-43q-34 0 -42 4t-2 12l152 248q40 66 70 114q-14 21 -34 53t-38 62l-136 228q-17 16 53 15v0v0v1z" />
    <glyph glyph-name="Y" unicode="Y" horiz-adv-x="605" 
d="M74 736v0h24q41 0 57 -4t20 -13l74 -153q41 -85 63 -149q22 62 62 149l72 154q2 8 14 12t53 4h22q41 0 53 -4t6 -13l-217 -434v-270q6 -17 -71 -15h-12q-42 0 -56 3q-14 4 -12 13v270l-215 432q-6 10 6 14t58 4v0v0v1z" />
    <glyph glyph-name="Z" unicode="Z" horiz-adv-x="589" 
d="M75 736v0h414q53 2 46 -16v-54q2 -32 -22 -72l-298 -476h314q10 2 14 -6t4 -48v-8q0 -38 -4 -48t-14 -8h-442q-53 -2 -46 16v54q-2 32 22 70l298 476h-288q-10 -2 -14 8t-4 48v8q0 40 4 48t14 6v0v0v1z" />
    <glyph glyph-name="bracketleft" unicode="[" horiz-adv-x="347" 
d="M80 772v0h240q14 7 12 -45v-9q2 -52 -12 -45h-116v-709h116q14 7 12 -45v-9q2 -52 -12 -45h-240q-8 0 -8 8v893q0 8 8 8v0v0v1v-3z" />
    <glyph glyph-name="backslash" unicode="\" horiz-adv-x="378" 
d="M72 736v0h14q69 2 67 -18l213 -701q4 -10 -6 -14t-53 -4h-13q-70 -2 -68 18l-213 701q-5 10 5 14t53 4v0v0v1z" />
    <glyph glyph-name="bracketright" unicode="]" horiz-adv-x="347" 
d="M24 772v0h240q8 0 8 -8v-893q0 -8 -8 -8h-240q-14 -7 -12 45v9q-2 52 12 45h116v709h-116q-14 -7 -12 45v9q-2 52 12 45v0v0v1v1z" />
    <glyph glyph-name="asciicircum" unicode="^" horiz-adv-x="604" 
d="M290 736v0h24q46 1 50 -17l180 -372q8 -12 -1 -18q-8 -6 -50 -6h-11q-56 -2 -59 12l-121 262l-121 -262q-3 -14 -58 -12h-12q-42 0 -51 6q-8 6 0 18l180 372q4 18 51 17v0v0v1z" />
    <glyph glyph-name="underscore" unicode="_" horiz-adv-x="512" 
d="M3 -112v0h506q8 1 12 -9t4 -44v-6q0 -34 -4 -44t-12 -9h-506q-8 -1 -12 9t-4 44v6q0 34 4 44t12 9v0v0v1v-1z" />
    <glyph glyph-name="grave" unicode="`" horiz-adv-x="358" 
d="M83 804v0h49q50 1 51 -12l108 -165q10 -16 -24 -14h-39q-35 0 -42 12l-134 165q-15 16 30 16v0v0v1z" />
    <glyph glyph-name="a" unicode="a" horiz-adv-x="591" 
d="M392 490v0l4 36q-1 7 9 11q11 3 51 3h6q38 0 50 -3q11 -3 10 -11q0 -28 -1 -92t-1 -130v-62q0 -62 2 -122t5 -102q2 -10 -7 -14q-10 -4 -52 -4h-5q-36 0 -48 2t-14 10q-4 13 -6 35q-54 -56 -139 -59q-102 2 -160 74t-59 199q2 140 68 216t160 77q88 -5 128 -61v0z
M380 196v0v184q-32 46 -88 48q-110 -3 -109 -164q-1 -70 23 -112q24 -43 84 -44q52 2 76 30q16 21 14 57v0v0v1z" />
    <glyph glyph-name="b" unicode="b" horiz-adv-x="592" 
d="M136 780v0h5q44 0 56 -4t10 -12v-262q52 48 134 49q99 -1 156 -73q58 -72 59 -200q-2 -151 -78 -225q-73 -68 -205 -67q-54 0 -107 12q-54 12 -86 30q-15 8 -13 26v706q-2 8 10 12q11 4 59 4v0v4zM208 351v0v-232q31 -11 68 -11q65 0 98 38q34 41 34 133q-2 89 -34 123
q-30 31 -75 29q-49 0 -79 -25q-16 -17 -14 -55v0v0v1z" />
    <glyph glyph-name="c" unicode="c" horiz-adv-x="511" 
d="M472 438v0l-10 -20q-26 -48 -36 -31q-52 39 -114 39q-54 1 -90 -37q-36 -37 -38 -119q0 -158 134 -161q59 1 113 29q12 16 32 -38l6 -14q21 -47 5 -49q-66 -48 -176 -52q-113 1 -181 63q-82 76 -83 216q1 134 76 212q68 72 194 74q102 -2 174 -62q18 -7 -8 -52v0v0v1z
" />
    <glyph glyph-name="d" unicode="d" horiz-adv-x="605" 
d="M452 780v0h5q44 0 56 -4t10 -12v-626q0 -32 30 -30q16 7 14 -42v-12q1 -48 -9 -47q-30 -12 -74 -13q-68 3 -89 49q-54 -56 -140 -57q-102 2 -160 74t-59 200q2 138 64 213q62 76 164 77q71 -1 121 -46v258q-2 8 10 12q11 4 59 4v0zM384 192v0v192q-38 47 -91 47
q-110 -2 -110 -170q2 -90 34 -124q30 -32 76 -30q48 0 76 28q16 17 14 55v0v0v1z" />
    <glyph glyph-name="e" unicode="e" horiz-adv-x="570" 
d="M516 220v0h-332q18 -111 136 -113q75 2 145 33q14 12 28 -30l9 -26q18 -45 -1 -49q-84 -46 -198 -49q-122 1 -192 72q-70 72 -72 204q1 128 67 207t185 81q116 -2 176 -78t60 -198q1 -58 -11 -54v0zM184 324v0h202q-9 101 -95 109q-86 -4 -107 -108v0v0v1v-2z" />
    <glyph glyph-name="f" unicode="f" horiz-adv-x="390" 
d="M28 540v0h72v25q1 113 57 170q53 54 147 54q60 0 113 -19q14 1 2 -47l-4 -18q-10 -48 -21 -40q-34 8 -66 8q-49 0 -69 -27q-20 -28 -20 -86v-20h118q6 2 10 -6q3 -9 3 -45v-7q0 -36 -3 -45q-4 -8 -10 -6h-118v-413q2 -8 -10 -12t-56 -4h-5q-48 0 -59 4q-12 4 -10 12v413
h-72q-7 -2 -11 6q-3 9 -3 45v7q0 36 3 45q4 8 11 6v0v0v1z" />
    <glyph glyph-name="g" unicode="g" horiz-adv-x="594" 
d="M456 540v0h10q53 2 53 -10q6 -22 8 -84t2 -132v-270q0 -147 -62 -214q-62 -70 -187 -69q-47 0 -93 12q-47 12 -79 30q-19 2 3 53l7 18q19 47 33 37q58 -27 122 -29q57 -1 87 33t30 114v16q-54 -46 -132 -47q-102 1 -160 72q-58 70 -59 198q2 138 64 212t162 74
q84 -4 136 -66q1 9 3 23t4 19q0 6 8 9t40 3v0v-2zM388 198v0v171q-36 64 -93 64q-107 2 -111 -166q0 -148 112 -149q48 1 76 27q16 17 14 55v0v0v1z" />
    <glyph glyph-name="h" unicode="h" horiz-adv-x="601" 
d="M136 780v0h5q44 0 56 -4t10 -12v-268q50 52 138 54q94 -2 142 -56q50 -54 48 -166v-314q2 -8 -10 -12t-56 -4h-5q-48 0 -59 4q-12 4 -10 12v275q0 52 -4 76q-4 23 -16 35q-22 23 -68 23q-38 0 -68 -16q-28 -18 -28 -54q-2 -38 -2 -100v-238q2 -8 -10 -12t-56 -4h-5
q-48 0 -59 4q-12 4 -10 12v749q-2 8 10 12q11 4 59 4v0v0v1z" />
    <glyph glyph-name="i" unicode="i" horiz-adv-x="284" 
d="M52 706v0q1 36 25 60t62 25q38 -1 62 -25t25 -60q-1 -36 -25 -60t-62 -25q-38 1 -62 25t-25 60v0zM139 540v0h6q44 0 56 -4t10 -12v-509q2 -8 -10 -12t-56 -4h-5q-48 0 -59 4q-12 4 -10 12v509q-2 8 9 12t58 4v0v0v1z" />
    <glyph glyph-name="j" unicode="j" horiz-adv-x="298" 
d="M156 540v0h5q44 0 56 -4t10 -12v-518q-1 -133 -54 -190t-143 -55q-66 2 -100 20q-10 4 -10 14t7 40l4 18q6 46 27 36q30 -6 56 -6q78 -2 74 106v538q-2 8 10 12q11 4 59 4v0zM68 706v0q1 36 25 60t62 25q38 -1 62 -25t25 -60q-1 -36 -25 -60t-62 -25q-38 1 -62 25t-25 60
v0v0v1v-1z" />
    <glyph glyph-name="k" unicode="k" horiz-adv-x="543" 
d="M136 780v0h5q44 0 56 -4t10 -12v-424q46 46 88 96t72 90q5 8 17 10t50 2h16q71 0 55 -18q-24 -50 -72 -110q-47 -60 -105 -114l204 -277q8 -8 -4 -14t-58 -6h-13q-49 0 -64 3t-20 13l-167 229v-229q2 -8 -10 -12t-56 -4h-5q-48 0 -59 4q-12 4 -10 12v749q-2 8 10 12
q11 4 59 4v0v0v1z" />
    <glyph glyph-name="l" unicode="l" horiz-adv-x="305" 
d="M126 780v0h6q42 0 54 -3t12 -11q4 -25 6 -108q2 -84 2 -190v-326q-3 -35 37 -35h12q12 6 10 -45v-9q0 -27 -2 -35t-10 -10q-26 -12 -68 -13q-56 1 -86 31q-34 36 -32 108v356q0 78 -3 162q-2 84 -4 116q-3 8 7 10q11 2 59 2v0v0v1v-1z" />
    <glyph glyph-name="m" unicode="m" horiz-adv-x="911" 
d="M122 540v0h6q36 0 48 -2t14 -10q5 -18 9 -45q54 64 146 68q104 0 154 -82q64 82 164 83q90 -2 137 -56q50 -54 48 -166v-314q2 -8 -10 -12t-56 -4h-5q-48 0 -59 4q-12 4 -10 12v275q0 52 -4 76q-4 23 -16 35q-22 23 -66 23q-32 0 -64 -16q-29 -18 -29 -54q-2 -38 -2 -100
v-240q2 -8 -10 -12t-56 -4h-5q-48 0 -59 4q-12 4 -10 12v275q0 52 -4 76q-4 23 -16 35q-22 23 -66 23q-32 0 -64 -15q-29 -18 -29 -54q-2 -38 -2 -100v-240q2 -8 -10 -12t-56 -4h-5q-48 0 -59 4q-12 4 -10 12v282q0 62 -2 122t-5 102q-2 10 9 14q10 4 52 4v0v0v1h2z" />
    <glyph glyph-name="n" unicode="n" horiz-adv-x="603" 
d="M122 540v0h6q36 0 48 -2t14 -10q4 -16 7 -42q52 62 150 66q96 -2 143 -56q50 -54 48 -166v-314q2 -8 -10 -12t-56 -4h-5q-48 0 -59 4q-12 4 -10 12v275q0 52 -4 76q-4 23 -16 35q-22 23 -70 23q-38 0 -69 -16q-30 -18 -30 -54q-2 -38 -2 -100v-239q2 -8 -10 -12t-56 -4
h-5q-48 0 -59 4q-12 4 -10 12v282q0 62 -2 122t-5 102q-2 10 9 14q10 4 52 4v0v0v1z" />
    <glyph glyph-name="o" unicode="o" horiz-adv-x="585" 
d="M300 552v0q116 0 181 -68q66 -68 67 -202q-4 -287 -264 -293q-116 0 -181 68q-66 68 -67 202q4 287 264 293v0zM298 432v0q-116 -5 -114 -166q-2 -154 102 -158q116 5 114 166q2 154 -102 158v0v0v1v-1z" />
    <glyph glyph-name="p" unicode="p" horiz-adv-x="595" 
d="M122 540v0h6q36 0 48 -2t14 -9q4 -16 7 -41q54 62 146 65q99 -2 157 -74t59 -200q-2 -138 -64 -214t-166 -77q-72 1 -122 40v-241q2 -8 -10 -12t-56 -4h-5q-48 0 -59 4q-12 4 -10 12v510q0 61 -2 121t-5 103q-2 10 9 14q10 4 52 4v0zM208 348v0v-201q40 -39 92 -39
q112 3 112 171q-2 90 -34 124q-31 32 -77 30q-50 0 -79 -28q-16 -17 -14 -55v0v0v1v-3z" />
    <glyph glyph-name="q" unicode="q" horiz-adv-x="591" 
d="M524 477v0v-408q0 -85 6 -159t14 -122q4 -8 -6 -12t-56 -4h-8q-43 0 -55 3t-12 13q-6 28 -12 94t-6 157q-52 -48 -128 -49q-102 2 -160 74t-59 199q1 133 76 211t212 80q52 0 103 -14q52 -14 83 -34q16 -8 14 -26v0zM384 189v0v234q-32 9 -66 9q-70 -2 -102 -52t-32 -120
q2 -89 35 -123q30 -31 75 -29q48 0 76 25q16 17 14 55v0v0v1z" />
    <glyph glyph-name="r" unicode="r" horiz-adv-x="404" 
d="M122 540v0h6q36 0 48 -2t13 -9q2 -9 6 -41t6 -65q46 128 141 130q16 0 27 -6q5 -1 7 -9t2 -41v-14q0 -38 -3 -47q-3 -10 -11 -9q-82 -8 -119 -69q-38 -54 -38 -194v-147q2 -8 -10 -12t-56 -4h-5q-48 0 -59 4q-12 4 -10 12v282q0 62 -2 122t-5 102q-2 10 9 14q10 4 52 4v0
v0v1z" />
    <glyph glyph-name="s" unicode="s" horiz-adv-x="489" 
d="M50 98v0l10 18q24 44 38 31q64 -42 130 -44q81 4 83 48q-5 36 -67 50t-124 48q-63 33 -67 127q2 82 62 128q59 46 150 46q102 -1 170 -53q17 -4 -13 -51l-10 -14q-24 -44 -38 -30q-48 32 -104 33q-44 0 -64 -17q-14 -12 -14 -30q5 -35 67 -50q62 -16 124 -49
q63 -33 67 -121q-2 -74 -54 -125q-58 -56 -168 -56q-122 4 -191 62q-14 6 9 46v0v0v1z" />
    <glyph glyph-name="t" unicode="t" horiz-adv-x="415" 
d="M168 688v0h5q44 0 56 -4t10 -12v-133h122q6 2 10 -6q3 -9 3 -45v-7q0 -36 -3 -45q-4 -8 -10 -6h-122v-250q0 -42 18 -56q16 -14 46 -14q25 0 53 10q13 10 27 -42l3 -10q8 -28 7 -38q0 -10 -9 -14q-54 -26 -118 -26q-85 1 -123 43q-42 42 -42 139v258h-70q-7 -2 -11 6
q-3 9 -3 45v7q0 36 3 45q4 8 11 6h70v133q-2 8 10 12q11 4 59 4v0v0v1z" />
    <glyph glyph-name="u" unicode="u" horiz-adv-x="601" 
d="M132 540v0h5q44 0 56 -4t10 -12v-275q0 -52 4 -76q4 -23 16 -35q22 -23 68 -23q38 0 68 16q29 18 29 54q2 38 2 100v239q-2 8 10 12q11 4 59 4h5q44 0 56 -4t10 -12v-282q0 -62 2 -122t5 -102q2 -10 -9 -14q-10 -4 -52 -4h-6q-36 0 -48 2t-14 10q-4 16 -7 42
q-52 -62 -149 -65q-95 2 -141 56q-50 54 -48 166v314q-2 8 10 12q11 4 59 4v0v0v1v-2z" />
    <glyph glyph-name="v" unicode="v" horiz-adv-x="537" 
d="M74 540v0h10q40 0 54 -4t16 -12l70 -212q31 -92 51 -170q30 78 62 190q32 111 50 193q0 8 11 12q12 4 54 4h6q77 -2 66 -16q-26 -128 -80 -272t-107 -242q-2 -6 -16 -9t-53 -3h-9q-39 0 -52 3q-14 3 -16 11l-184 508q-5 10 7 14t62 4v0v0v1h-2z" />
    <glyph glyph-name="w" unicode="w" horiz-adv-x="810" 
d="M75 540v0h3q42 0 56 -4t15 -13l49 -191q12 -46 24 -108t16 -94q6 32 21 94q16 62 28 104l54 194q2 10 15 14q13 3 54 3h10q40 0 52 -4t13 -11l50 -192q16 -60 28 -116t17 -84q26 86 48 192t37 198q0 10 11 14q12 3 56 3h4q69 2 59 -16q-18 -114 -56 -250t-88 -258
q-2 -10 -17 -12q-14 -2 -58 -2h-8q-50 0 -64 3t-14 11l-46 168q-30 104 -42 195q-12 -99 -42 -197l-50 -166q0 -7 -14 -11q-14 -3 -58 -3h-10q-43 0 -57 3t-15 11l-144 507q-4 10 8 14t60 4v0v0v1z" />
    <glyph glyph-name="x" unicode="x" horiz-adv-x="522" 
d="M70 540v0h18q46 0 64 -4t22 -13l39 -59q32 -50 52 -84q20 38 48 84l34 59q4 10 18 14q13 3 54 3h10q45 0 57 -5t4 -15l-90 -136q-42 -62 -72 -105q33 -40 69 -92l116 -170q22 -20 -66 -18h-16q-42 0 -56 3q-15 4 -20 14l-46 70q-34 52 -56 90q-24 -44 -53 -92l-41 -68
q-4 -10 -17 -14q-14 -3 -54 -3h-12q-44 0 -56 5t-4 15l112 166q35 54 61 92q-32 42 -64 90l-104 154q-22 22 56 20v0v0v1z" />
    <glyph glyph-name="y" unicode="y" horiz-adv-x="545" 
d="M89 540v0h14q44 0 56 -4t14 -12l64 -200q32 -102 46 -184q16 82 44 181l60 202q2 8 14 12t51 4h14q45 0 56 -4t7 -14l-176 -511q-42 -130 -101 -190q-60 -60 -158 -59q-72 2 -110 26q-12 4 2 49l4 15q12 50 32 40q30 -9 64 -11q41 -2 71 23q30 26 56 96l-184 524
q-4 10 7 14q12 4 58 4v0v0v1z" />
    <glyph glyph-name="z" unicode="z" horiz-adv-x="492" 
d="M64 540v0h351q43 2 37 -14v-38q1 -30 -15 -52l-222 -323h230q7 2 10 -7q4 -10 4 -46v-4q0 -36 -4 -46q-3 -9 -10 -7h-370q-44 -2 -38 14v38q-1 30 15 52l224 323h-213q-7 -2 -10 7q-4 10 -4 46v4q0 36 4 46q3 9 10 7v0v0v1z" />
    <glyph glyph-name="braceleft" unicode="{" horiz-adv-x="330" 
d="M265 772v0h38q13 7 11 -46v-12q2 -53 -11 -46h-24q-60 1 -56 -65v-144q3 -104 -75 -142q78 -38 75 -142v-144q-4 -65 56 -63h22q14 7 13 -46v-12q2 -53 -11 -46h-38q-96 0 -135 45q-39 46 -37 132v146q-4 72 -61 75q-14 -4 -12 45v20q-2 49 12 45q57 3 61 75v147
q-2 86 37 132q39 45 135 45v0v0v1z" />
    <glyph glyph-name="bar" unicode="|" horiz-adv-x="280" 
d="M132 836v0h11q42 0 52 -4q11 -4 9 -12v-1085q2 -8 -9 -12q-10 -4 -52 -4h-11q-40 0 -50 4t-8 12v1085q-2 8 8 12t50 4v0v0v1v-1z" />
    <glyph glyph-name="braceright" unicode="}" horiz-adv-x="330" 
d="M25 772v0h38q96 0 135 -45q39 -46 37 -132v-147q4 -72 61 -75q14 4 12 -45v-20q2 -49 -12 -45q-57 -3 -61 -75v-146q2 -86 -37 -132q-39 -45 -135 -45h-38q-13 -7 -11 46v12q-1 53 13 46h22q60 0 56 66v141q-3 104 74 142q-77 38 -74 142v141q4 66 -56 67h-24
q-13 -7 -11 46v12q-2 53 11 46v0v0v1v-1z" />
    <glyph glyph-name="asciitilde" unicode="~" horiz-adv-x="604" 
d="M83 307v0l-14 3q-42 8 -34 25q13 62 55 103t102 43q76 -6 126 -43t93 -41q45 4 63 59q1 16 45 6l14 -3q42 -8 34 -25q-14 -62 -56 -103t-102 -43q-76 6 -126 43t-94 41q-45 -4 -63 -59q-1 -16 -45 -6v0v0v1z" />
    <glyph glyph-name="uni007F" 
d="M0 1v-1v1z" />
    <glyph glyph-name="uni0080" 
d="M0 1v-1v1z" />
    <glyph glyph-name="uni0081" 
d="M0 1v-1v1z" />
    <glyph glyph-name="uni0082" 
d="M0 1v-1v1z" />
    <glyph glyph-name="uni0083" 
d="M0 1v-1v1z" />
    <glyph glyph-name="uni0084" 
d="M0 1v-1v1z" />
    <glyph glyph-name="uni0085" unicode="&#x85;" 
d="M0 1v-1v1z" />
    <glyph glyph-name="uni0086" 
d="M0 1v-1v1z" />
    <glyph glyph-name="uni0087" 
d="M0 1v-1v1z" />
    <glyph glyph-name="uni0088" 
d="M0 1v-1v1z" />
    <glyph glyph-name="uni0089" 
d="M0 1v-1v1z" />
    <glyph glyph-name="uni008A" 
d="M0 1v-1v1z" />
    <glyph glyph-name="uni008B" 
d="M0 1v-1v1z" />
    <glyph glyph-name="uni008C" 
d="M0 1v-1v1z" />
    <glyph glyph-name="uni008D" 
d="M0 1v-1v1z" />
    <glyph glyph-name="uni008E" 
d="M0 1v-1v1z" />
    <glyph glyph-name="uni008F" 
d="M0 1v-1v1z" />
    <glyph glyph-name="uni0090" 
d="M0 1v-1v1z" />
    <glyph glyph-name="uni0091" 
d="M0 1v-1v1z" />
    <glyph glyph-name="uni0092" 
d="M0 1v-1v1z" />
    <glyph glyph-name="uni0093" 
d="M0 1v-1v1z" />
    <glyph glyph-name="uni0094" 
d="M0 1v-1v1z" />
    <glyph glyph-name="uni0095" 
d="M0 1v-1v1z" />
    <glyph glyph-name="uni0096" 
d="M0 1v-1v1z" />
    <glyph glyph-name="uni0097" 
d="M0 1v-1v1z" />
    <glyph glyph-name="uni0098" 
d="M0 1v-1v1z" />
    <glyph glyph-name="uni0099" 
d="M0 1v-1v1z" />
    <glyph glyph-name="uni009A" 
d="M0 1v-1v1z" />
    <glyph glyph-name="uni009B" 
d="M0 1v-1v1z" />
    <glyph glyph-name="uni009C" 
d="M0 1v-1v1z" />
    <glyph glyph-name="uni009D" 
d="M0 1v-1v1z" />
    <glyph glyph-name="uni009E" 
d="M0 1v-1v1z" />
    <glyph glyph-name="uni009F" 
d="M0 1v-1v1z" />
    <glyph glyph-name="uni00A0" unicode="&#xa0;" 
d="M0 1v-1v1z" />
    <glyph glyph-name="exclamdown" unicode="&#xa1;" horiz-adv-x="306" 
d="M64 466v0q6 78 89 86q86 -8 92 -86q-6 -79 -92 -86q-83 7 -89 86v0zM142 296v0h24q53 2 49 -12l19 -463q2 -10 -12 -14t-60 -4h-11q-44 0 -58 4t-12 14l16 463q-4 14 47 12v0v0v1z" />
    <glyph glyph-name="cent" unicode="&#xa2;" horiz-adv-x="604" 
d="M338 660v0h3q44 0 55 -4q10 -4 8 -12v-101q66 -14 114 -54q18 -7 -8 -51l-10 -20q-26 -48 -36 -31q-52 38 -118 40q-54 1 -89 -37q-35 -37 -37 -119q0 -158 132 -161q62 1 116 29q12 16 32 -38l6 -14q21 -46 5 -48q-43 -30 -107 -44v-103q2 -8 -8 -12q-11 -4 -55 -4h-3
q-46 0 -57 4t-9 12v100q-70 12 -118 56q-82 74 -83 214q1 134 76 211q49 50 123 66v102q-2 8 9 12t57 4v0v0v1z" />
    <glyph glyph-name="sterling" unicode="&#xa3;" horiz-adv-x="604" 
d="M94 440v0h71v55q0 116 56 184t174 70q82 -2 140 -33q17 -5 -2 -47l-8 -18q-19 -52 -31 -37q-40 19 -88 20q-98 -6 -93 -126v-66h162q7 2 10 -6q4 -9 4 -45v-7q0 -36 -4 -45q-3 -8 -10 -6h-163v-46q2 -116 -54 -164h274q10 2 14 -7q4 -10 4 -48v-7q0 -38 -4 -48t-14 -9
h-432q-10 -1 -14 9t-4 48v4q-2 50 17 55q72 40 66 162v50h-71q-6 -2 -10 6q-3 9 -3 45v7q0 36 3 45q4 8 10 6v0v0v1v-2z" />
    <glyph glyph-name="currency" unicode="&#xa4;" 
d="M0 1v-1v1z" />
    <glyph glyph-name="yen" unicode="&#xa5;" horiz-adv-x="604" 
d="M86 736v0h24q41 0 57 -4t20 -13l74 -152q41 -84 63 -148q22 62 62 148l72 154q2 8 14 12t53 4h22q41 0 53 -4t6 -13l-192 -380h104q8 2 11 -6q4 -8 4 -41v-1q0 -33 -4 -41q-3 -8 -11 -6h-129v-45h129q8 2 11 -6q4 -8 4 -41v-1q0 -33 -4 -41q-3 -8 -11 -6h-129v-88
q6 -17 -71 -15h-12q-42 0 -56 4q-14 3 -12 12v89h-129q-8 -2 -11 6q-4 8 -4 42v1q0 33 4 41q3 8 11 6h129v45h-129q-8 -2 -11 6q-4 8 -4 41v1q0 33 4 41q3 8 11 6h104l-190 380q-6 9 6 13t58 4v0v0v1z" />
    <glyph glyph-name="brokenbar" unicode="&#xa6;" horiz-adv-x="280" 
d="M132 182v0h11q42 0 52 -4q11 -4 9 -12v-380q2 -8 -9 -12q-10 -4 -52 -4h-11q-40 0 -50 4t-8 12v380q-2 8 8 12t50 4v0zM132 784v0h11q42 0 52 -4q11 -4 9 -12v-380q2 -8 -9 -12q-10 -4 -52 -4h-11q-40 0 -50 4t-8 12v380q-2 8 8 12t50 4v0v0v1v-1z" />
    <glyph glyph-name="section" unicode="&#xa7;" horiz-adv-x="554" 
d="M452 644v0l-10 -14q-24 -44 -37 -30q-48 32 -106 33q-45 0 -66 -17q-14 -12 -14 -30q6 -35 74 -51q68 -15 136 -48t73 -122q-4 -92 -71 -132q38 -34 40 -100q-2 -82 -62 -128t-152 -46q-103 1 -170 53q-18 4 12 51l9 14q24 44 37 30q48 -32 106 -33q45 0 66 17
q14 12 14 30q-6 35 -74 51q-68 15 -136 48t-73 121q4 91 70 133q-38 34 -39 101q2 82 62 128t152 46q103 -1 171 -53q17 -4 -13 -51v0zM328 288v0v0q34 20 36 54q-2 30 -44 44t-97 29q-33 -20 -35 -54q2 -31 44 -45t97 -29v0v0v1h-1z" />
    <glyph glyph-name="dieresis" unicode="&#xa8;" horiz-adv-x="358" 
d="M-8 695v0q5 66 75 72q71 -6 75 -72q-4 -64 -75 -70q-70 6 -75 70v0zM216 695v0q4 66 74 72q73 -6 77 -72q-4 -64 -77 -70q-70 6 -74 70v0v0v1v-1z" />
    <glyph glyph-name="copyright" unicode="&#xa9;" horiz-adv-x="819" 
d="M530 514v0l-6 -12q-12 -26 -20 -17q-36 24 -74 23q-98 0 -100 -142q-2 -134 100 -138q40 0 78 18q10 10 20 -16l5 -12q14 -27 0 -30q-48 -31 -116 -33q-86 1 -132 57t-46 154q0 99 49 159q48 60 136 62q65 0 110 -36q15 -6 -2 -34v0zM411 748v0q160 -2 264 -103
q104 -102 108 -278q-4 -174 -108 -276q-104 -101 -264 -103q-162 2 -267 103q-105 102 -109 276q4 176 109 278q105 101 267 103v0zM408 664v0q-120 -2 -198 -82t-81 -216q3 -136 82 -216q78 -79 200 -81q118 2 196 81q78 80 81 216q-3 136 -81 216q-79 80 -199 82v0v0v1v-1
z" />
    <glyph glyph-name="ordfeminine" unicode="&#xaa;" horiz-adv-x="419" 
d="M276 707v0l3 25q0 4 6 6q7 2 33 2h14q44 0 38 -10v-61v-86v-40q0 -86 4 -150q2 -6 -4 -8t-33 -2h-14q-42 -2 -40 8q-2 8 -4 22q-36 -37 -93 -39q-139 6 -145 178q2 93 46 143q43 50 106 50q58 -4 84 -42v0zM268 528v0v101q-18 30 -53 31q-69 0 -67 -102q-4 -94 64 -98
q26 1 40 15q16 18 16 52v0v0v1z" />
    <glyph glyph-name="guillemotleft" unicode="&#xab;" horiz-adv-x="555" 
d="M236 532v0l16 -9q44 -24 31 -40l-108 -174l108 -174q13 -16 -31 -40l-16 -9q-42 -24 -50 -4l-131 190q-11 14 -11 34v6q0 20 11 34l131 190q8 20 50 -4v0zM462 532v0l16 -9q44 -24 31 -40l-108 -174l108 -174q13 -16 -31 -40l-16 -9q-42 -24 -50 -4l-131 190
q-11 14 -11 34v6q0 20 11 34l131 190q8 20 50 -4v0v0v1v-1z" />
    <glyph glyph-name="logicalnot" unicode="&#xac;" horiz-adv-x="604" 
d="M84 540v0h442q12 2 11 -9v-340q1 -8 -9 -11q-10 -4 -44 -4h-15q-34 0 -44 4q-10 3 -9 11v230h-333q-8 -1 -12 9t-4 44v15q0 34 4 44t12 9v0v0v1z" />
    <glyph glyph-name="uni00AD" unicode="&#xad;" 
d="M0 1v-1v1z" />
    <glyph glyph-name="registered" unicode="&#xae;" horiz-adv-x="819" 
d="M298 576v0h86q63 2 110 -23q48 -25 50 -99q-2 -82 -74 -118l14 -24q50 -91 89 -139q12 -11 -22 -11h-34q-28 -2 -36 8q-20 20 -70 117l-18 34h-32v-151q4 -10 -40 -9h-8q-44 -1 -39 9v398q-4 10 26 9v0zM360 506v0v-118h26q38 0 54 18q16 16 16 44q0 27 -14 40
q-16 16 -58 16h-24v0zM410 748v0q160 -2 266 -104t110 -276q-4 -174 -110 -276t-266 -104q-160 2 -265 104t-109 276q4 174 109 276t265 104v0zM408 664v0q-118 -2 -196 -82t-81 -215q3 -135 81 -215t198 -82q118 2 196 82t81 215q-3 135 -81 215q-79 80 -198 82v0v0v1v-1z
" />
    <glyph glyph-name="macron" unicode="&#xaf;" horiz-adv-x="358" 
d="M41 752v0h276q15 2 13 -42v-15q2 -44 -13 -42h-276q-15 -2 -13 42v15q-2 44 13 42v0v0v1v-1z" />
    <glyph glyph-name="degree" unicode="&#xb0;" horiz-adv-x="361" 
d="M181 676v0q-62 -4 -65 -76q2 -70 63 -72q63 2 66 76q-2 70 -63 72v0h-1zM32 598v0q1 69 43 109t110 41q63 0 103 -36t42 -107q-2 -69 -43 -109q-42 -39 -109 -40q-63 0 -103 36t-41 106v0v0v1z" />
    <glyph glyph-name="plusminus" unicode="&#xb1;" horiz-adv-x="604" 
d="M61 528v0h180v178q-1 8 9 11q10 4 44 4h15q34 0 44 -4q10 -3 9 -11v-178h180q8 1 12 -9q3 -10 3 -44v-15q0 -34 -3 -44q-4 -10 -12 -9h-180v-177q1 -8 -9 -12t-44 -4h-15q-34 0 -44 4t-9 12v177h-180q-8 -1 -12 9q-3 10 -3 44v15q0 34 3 44q4 10 12 9v0zM61 120v0h479
q8 1 12 -9q3 -10 3 -44v-15q0 -34 -3 -44q-4 -10 -12 -9h-479q-8 -1 -12 9q-3 10 -3 44v15q0 34 3 44q4 10 12 9v0v0v1v-1z" />
    <glyph glyph-name="twosuperior" unicode="&#xb2;" horiz-adv-x="451" 
d="M88 420v0v6q-2 29 18 44q147 121 143 193q0 38 -42 38q-37 -4 -67 -26q-9 -14 -38 34q-27 44 -9 48q56 40 130 44q62 0 103 -33q41 -32 43 -95q0 -98 -119 -188h108q16 6 15 -52v-4q1 -58 -15 -52h-252q-16 -8 -16 44v0v0v1z" />
    <glyph glyph-name="threesuperior" unicode="&#xb3;" horiz-adv-x="451" 
d="M172 636v0h14q60 1 62 36q-1 30 -47 32q-38 -2 -74 -26q-9 -15 -38 33q-26 44 -8 48q56 40 136 42q142 -4 150 -120q-4 -60 -57 -82q65 -19 69 -95q-2 -67 -51 -101q-50 -34 -122 -34q-64 0 -122 24q-18 2 0 48q18 53 32 41q35 -14 85 -15q55 2 57 39t-71 37h-18
q-8 -1 -12 7t-4 38v4q0 50 16 42v0v0v1z" />
    <glyph glyph-name="acute" unicode="&#xb4;" horiz-adv-x="358" 
d="M226 804v0h49q45 0 29 -16l-133 -165q-7 -12 -42 -12h-39q-34 -2 -24 14l108 165q1 13 51 12v0v0v1z" />
    <glyph glyph-name="mu" unicode="&#xb5;" horiz-adv-x="610" 
d="M132 540v0h5q44 0 56 -4t10 -12v-275q0 -52 4 -76q4 -23 16 -35q22 -23 68 -23q38 0 68 16q29 18 29 54q2 39 2 101v239q-2 8 10 12q11 4 59 4h5q44 0 56 -4t10 -12v-388q0 -32 30 -28q16 6 14 -42v-11q1 -48 -9 -46q-29 -12 -72 -13q-74 4 -92 58q-52 -62 -149 -65
q-26 0 -49 4q6 -128 19 -206q4 -8 -6 -12t-56 -4h-8q-43 0 -55 3t-12 13q-6 28 -12 94t-6 158v486q-2 8 10 12q11 4 59 4v0v0v1z" />
    <glyph glyph-name="paragraph" unicode="&#xb6;" horiz-adv-x="628" 
d="M280 736v0h318q10 4 10 -33v-35q0 -36 -10 -32h-74v-766q-1 -11 -39 -10h-34q-38 -1 -39 10v766h-56v-766q-1 -11 -39 -10h-34q-38 -1 -39 10v436q-96 6 -151 64t-57 148q0 100 62 160q62 59 180 61v0v0v1z" />
    <glyph glyph-name="periodcentered" unicode="&#xb7;" horiz-adv-x="245" 
d="M36 374v0q6 79 88 86q83 -7 89 -86q-6 -78 -89 -86q-82 8 -88 86v0v0v1v-1z" />
    <glyph glyph-name="cedilla" unicode="&#xb8;" horiz-adv-x="358" 
d="M132 24v0h8q48 2 40 -14l-4 -46q104 0 112 -98q0 -46 -33 -79q-32 -33 -100 -35q-48 0 -80 13q-13 0 -3 38l4 12q6 35 23 27q24 -6 47 -6q40 2 40 30q2 30 -46 31q-26 0 -62 -4l18 122q-5 11 37 10v0v0v1z" />
    <glyph glyph-name="onesuperior" unicode="&#xb9;" horiz-adv-x="451" 
d="M80 715v0l114 60q19 12 47 12h46q22 0 20 -9v-311h45q16 8 15 -48v-1q2 -56 -17 -48h-222q-16 -8 -15 48v1q0 56 15 48h62v197l-60 -32q-11 -14 -39 34q-15 26 -17 35t6 13v0v0v1z" />
    <glyph glyph-name="ordmasculine" unicode="&#xba;" horiz-adv-x="419" 
d="M214 660v0q-65 1 -66 -101q-2 -93 58 -95q65 -1 66 101q2 93 -58 95v0zM216 748v0q158 -2 164 -178q-3 -187 -175 -193q-158 2 -164 178q3 187 175 193v0v0v1v-1z" />
    <glyph glyph-name="guillemotright" unicode="&#xbb;" horiz-adv-x="555" 
d="M302 524v0l16 9q42 24 50 4l131 -190q11 -14 11 -34v-6q0 -20 -11 -34l-131 -190q-8 -20 -50 4l-16 9q-44 24 -31 40l108 174l-108 174q-13 16 31 40v0zM77 524v0l16 9q42 24 50 4l131 -190q11 -14 11 -34v-6q0 -20 -11 -34l-131 -190q-8 -20 -50 4l-16 9q-44 24 -31 40
l108 174l-108 174q-13 16 31 40v0v0v1v-1z" />
    <glyph glyph-name="onequarter" unicode="&#xbc;" horiz-adv-x="604" 
d="M680 736v0h9q38 0 46 -4t3 -12l-321 -702q-3 -10 -15 -14t-51 -4h-9q-39 0 -47 4t-2 12l321 702q4 10 16 14t51 4v0h-1zM80 664v0l114 60q19 12 47 12h46q22 0 20 -9v-307h41q16 8 15 -48v-1q0 -56 -14 -48h-222q-16 -8 -15 48v1q0 56 15 48h62v194l-60 -32
q-11 -14 -39 34q-15 26 -17 34q-2 9 6 13v0zM761 417v0h4q65 0 53 -16l-88 -218h59v52q-6 16 53 16h4q59 0 53 -16v-52h21q16 7 15 -49v-3q0 -30 -4 -37q-3 -8 -11 -7h-22v-72q6 -16 -53 -15h-4q-59 -1 -53 15v72h-171q-8 -1 -12 7q-4 7 -4 37v2q-1 24 15 60l84 207
q1 17 60 15v0v0v1z" />
    <glyph glyph-name="onehalf" unicode="&#xbd;" horiz-adv-x="604" 
d="M638 44v0v6q-2 29 18 44q146 121 142 193q0 38 -42 38q-36 -4 -66 -26q-9 -14 -37 34q-27 44 -9 48q56 40 130 44q62 0 103 -33q41 -32 43 -95q0 -98 -119 -188h108q16 6 15 -52v-4q1 -58 -15 -52h-251q-16 -8 -16 44v0zM680 736v0h9q38 0 46 -4t3 -12l-321 -702
q-3 -10 -15 -14t-51 -4h-10q-38 0 -46 4t-2 12l321 702q4 10 16 14t51 4v0h-1zM80 664v0l114 60q19 12 47 12h46q22 0 20 -9v-308h41q16 8 15 -47v-1q0 -55 -14 -47h-222q-16 -8 -15 47v1q0 55 15 47h62v195l-60 -32q-11 -14 -39 34q-15 26 -17 35t6 13v0v0v1z" />
    <glyph glyph-name="threequarters" unicode="&#xbe;" horiz-adv-x="604" 
d="M188 584v0h14q60 1 62 36q-1 30 -47 32q-38 -2 -74 -26q-9 -15 -38 33q-26 44 -8 48q56 40 136 42q142 -4 150 -120q-4 -60 -57 -82q65 -20 69 -92q-2 -66 -51 -100q-50 -34 -122 -34q-64 0 -122 24q-18 2 0 48q18 52 32 41q35 -13 85 -14q55 2 57 37t-71 35h-18
q-8 -1 -12 7t-4 38v4q0 50 16 42v0zM680 736v0h9q38 0 46 -4t2 -12l-320 -702q-3 -10 -15 -14t-52 -4h-10q-39 0 -47 4t-2 12l322 702q4 10 16 14t51 4v0zM761 418v0h4q65 0 53 -16l-88 -218h59v52q-6 16 53 15h4q59 1 53 -15v-52h21q16 7 15 -49v-3q0 -30 -4 -37
q-3 -8 -11 -7h-22v-72q6 -16 -53 -15h-4q-59 -1 -53 15v72h-170q-8 -1 -12 7q-4 7 -4 37v2q-1 24 15 60l83 208q1 17 60 15v0v0v1h1z" />
    <glyph glyph-name="questiondown" unicode="&#xbf;" horiz-adv-x="468" 
d="M364 466v0q-6 -79 -88 -86q-83 7 -88 86q6 78 88 86q82 -8 88 -86v0zM413 -81v0l12 -26q20 -33 -1 -44q-68 -52 -178 -56q-96 1 -154 49t-60 136q3 82 46 130q42 47 86 85q43 38 48 92q-1 8 9 10q10 3 44 3h20q60 2 54 -14v-4q-3 -78 -41 -123t-76 -81t-41 -88
q-1 -69 85 -73q60 3 110 37q15 16 38 -30v0v0v1z" />
    <glyph glyph-name="Agrave" unicode="&#xc0;" horiz-adv-x="676" 
d="M330 736v0h10q41 0 54 -3q13 -4 15 -14l253 -702q5 -10 -7 -14t-56 -4h-12q-43 0 -59 4t-18 13l-58 168h-236l-56 -168q-2 -9 -17 -13t-58 -4h-10q-44 0 -56 4t-6 14l250 702q2 8 14 12t54 4v0zM264 334v0l-11 -34h160l-11 36q-26 82 -42 132t-26 88q-21 -76 -70 -223v0
v1zM226 1000v0h49q50 1 51 -12l108 -165q10 -16 -24 -14h-39q-34 0 -42 12l-133 165q-15 16 30 16v0v0v1v-3z" />
    <glyph glyph-name="Aacute" unicode="&#xc1;" horiz-adv-x="676" 
d="M330 736v0h10q41 0 54 -3q13 -4 15 -14l253 -702q5 -10 -7 -14t-56 -4h-12q-43 0 -59 4t-18 13l-58 168h-236l-56 -168q-2 -9 -17 -13t-58 -4h-10q-44 0 -56 4t-6 14l250 702q2 8 14 12t54 4v0zM264 334v0l-11 -34h160l-11 36q-26 82 -42 132t-26 88q-21 -76 -70 -223v0
v1zM404 1000v0h49q45 0 30 -16l-134 -165q-7 -12 -42 -12h-38q-35 -2 -25 14l109 165q1 13 51 12v0v0v1v1z" />
    <glyph glyph-name="Acircumflex" unicode="&#xc2;" horiz-adv-x="676" 
d="M330 736v0h10q41 0 54 -3q13 -4 15 -14l253 -702q5 -10 -7 -14t-56 -4h-12q-43 0 -59 4t-18 13l-58 168h-236l-56 -168q-2 -9 -17 -13t-58 -4h-10q-44 0 -56 4t-6 14l250 702q2 8 14 12t54 4v0zM264 334v0l-11 -34h160l-11 36q-26 82 -42 132t-26 88q-21 -76 -70 -223v0
v1zM174 876v0l94 99q12 18 62 16h14q51 2 63 -16l94 -99q14 -13 -13 -36l-10 -10q-26 -30 -38 -16l-104 90l-104 -90q-12 -14 -38 16l-10 10q-27 23 -13 36v0v0v1z" />
    <glyph glyph-name="Atilde" unicode="&#xc3;" horiz-adv-x="676" 
d="M330 736v0h10q41 0 54 -3q13 -4 15 -14l253 -702q5 -10 -7 -14t-56 -4h-12q-43 0 -59 4t-18 13l-58 168h-236l-56 -168q-2 -9 -17 -13t-58 -4h-10q-44 0 -56 4t-6 14l250 702q2 8 14 12t54 4v0zM264 334v0l-11 -34h160l-11 36q-26 82 -42 132t-26 88q-21 -76 -70 -223v0
v1zM174 854v0l-4 4q-29 26 -17 38q46 62 118 68q39 -2 67 -18t51 -17q30 0 61 32q4 13 37 -19l4 -4q29 -26 17 -38q-46 -62 -118 -68q-38 2 -66 18t-52 17q-30 0 -61 -32q-4 -13 -37 19v0v0v1v-1z" />
    <glyph glyph-name="Adieresis" unicode="&#xc4;" horiz-adv-x="676" 
d="M330 736v0h10q41 0 54 -3q13 -4 15 -14l253 -702q5 -10 -7 -14t-56 -4h-12q-43 0 -59 4t-18 13l-58 168h-236l-56 -168q-2 -9 -17 -13t-58 -4h-10q-44 0 -56 4t-6 14l250 702q2 8 14 12t54 4v0zM264 334v0l-11 -34h160l-11 36q-26 82 -42 132t-26 88q-21 -76 -70 -223v0
v1zM152 891v0q5 66 75 72q71 -6 75 -72q-4 -64 -75 -70q-70 6 -75 70v0zM372 891v0q4 66 74 72q73 -6 77 -72q-4 -64 -77 -70q-70 6 -74 70v0v0v1v-1z" />
    <glyph glyph-name="Aring" unicode="&#xc5;" horiz-adv-x="676" 
d="M406 732v0l258 -714q5 -10 -7 -14t-56 -4h-12q-43 0 -59 4t-18 13l-58 168h-238l-56 -168q-2 -9 -17 -13t-58 -4h-10q-44 0 -55 4q-12 4 -7 14l254 717q-43 33 -45 90q2 48 35 80q34 31 83 33q50 -1 84 -32t35 -80q-2 -60 -49 -92v0zM263 334v0l-11 -34h162l-12 36
q-27 83 -43 133t-26 88q-21 -77 -70 -225v0v2zM296 824v0q4 -38 42 -41q37 4 39 41q-2 36 -39 40q-38 -2 -42 -40v0v0v1v-1z" />
    <glyph glyph-name="AE" unicode="&#xc6;" horiz-adv-x="1000" 
d="M494 736v0h434q10 2 14 -7q4 -10 4 -48v-8q0 -37 -4 -47t-14 -9h-282v-184h238q10 2 14 -7q4 -10 4 -48v-8q0 -37 -4 -47t-14 -9h-238v-192h286q10 2 14 -7q4 -10 4 -48v-8q0 -37 -4 -47t-14 -9h-390q-54 -2 -47 16v160h-243l-95 -158q-6 -20 -76 -18h-26q-42 0 -52 4
t-2 13l433 702q5 9 15 13q11 4 43 4v0zM394 414v0l-74 -126h176v310q-14 -31 -42 -81q-29 -50 -61 -102v0v0v1z" />
    <glyph glyph-name="Ccedilla" unicode="&#xc7;" horiz-adv-x="600" 
d="M554 630v0l-14 -24q-22 -46 -35 -31q-65 46 -136 46q-172 -2 -178 -256q-2 -242 178 -248q72 0 141 36q18 16 36 -30l11 -25q24 -44 0 -52q-36 -22 -88 -38t-106 -20l-2 -24q104 0 112 -98q0 -46 -32 -79t-100 -35q-48 0 -78 13q-12 0 -2 38l3 12q6 35 22 27q24 -6 46 -6
q40 2 40 30q2 30 -45 31q-25 0 -60 -4l14 103q-116 24 -178 119q-62 94 -62 246q2 174 86 279q85 105 235 107q118 0 200 -62q13 -9 13 -19q-1 -10 -15 -35v0v0v1z" />
    <glyph glyph-name="Egrave" unicode="&#xc8;" horiz-adv-x="579" 
d="M120 736v0h386q10 2 14 -7q4 -10 4 -48v-8q0 -37 -4 -47t-14 -9h-282v-184h238q10 2 14 -7q4 -10 4 -48v-8q0 -37 -4 -47t-14 -9h-238v-192h286q10 2 14 -7q4 -10 4 -48v-8q0 -37 -4 -47t-14 -9h-390q-54 -2 -47 16v705q-7 18 47 16v0v-4zM192 1000v0h49q50 1 51 -12
l108 -165q10 -16 -24 -14h-39q-35 0 -42 12l-133 165q-16 16 29 16v0v0v1z" />
    <glyph glyph-name="Eacute" unicode="&#xc9;" horiz-adv-x="579" 
d="M120 736v0h386q10 2 14 -7q4 -10 4 -48v-8q0 -37 -4 -47t-14 -9h-282v-184h238q10 2 14 -7q4 -10 4 -48v-8q0 -37 -4 -47t-14 -9h-238v-192h286q10 2 14 -7q4 -10 4 -48v-8q0 -37 -4 -47t-14 -9h-390q-54 -2 -47 16v705q-7 18 47 16v0v-4zM364 1000v0h49q45 0 30 -16
l-133 -165q-8 -12 -42 -12h-39q-34 -2 -24 14l108 165q1 13 51 12v0v0v1v1z" />
    <glyph glyph-name="Ecircumflex" unicode="&#xca;" horiz-adv-x="579" 
d="M120 736v0h386q10 2 14 -7q4 -10 4 -48v-8q0 -37 -4 -47t-14 -9h-282v-184h238q10 2 14 -7q4 -10 4 -48v-8q0 -37 -4 -47t-14 -9h-238v-192h286q10 2 14 -7q4 -10 4 -48v-8q0 -37 -4 -47t-14 -9h-390q-54 -2 -47 16v705q-7 18 47 16v0v-4zM138 876v0l94 99q12 18 63 16
h14q51 2 63 -16l94 -99q14 -13 -13 -36l-10 -10q-26 -30 -38 -16l-104 90l-104 -90q-12 -14 -38 16l-10 10q-27 23 -13 36v0v0v1z" />
    <glyph glyph-name="Edieresis" unicode="&#xcb;" horiz-adv-x="579" 
d="M120 736v0h386q10 2 14 -7q4 -10 4 -48v-8q0 -37 -4 -47t-14 -9h-282v-184h238q10 2 14 -7q4 -10 4 -48v-8q0 -37 -4 -47t-14 -9h-238v-192h286q10 2 14 -7q4 -10 4 -48v-8q0 -37 -4 -47t-14 -9h-390q-54 -2 -47 16v705q-7 18 47 16v0v-4zM104 891v0q5 66 75 72
q71 -6 75 -72q-4 -64 -75 -70q-70 6 -75 70v0zM328 891v0q4 66 74 72q73 -6 77 -72q-4 -64 -77 -70q-70 6 -74 70v0v0v1v-1z" />
    <glyph glyph-name="Igrave" unicode="&#xcc;" horiz-adv-x="415" 
d="M66 736v0h284q7 1 10 -8q2 -10 2 -44v-5q0 -34 -2 -44q-3 -9 -10 -8h-66v-521h66q7 1 10 -8q2 -10 2 -44v-5q0 -34 -2 -44q-3 -9 -10 -8h-284q-7 -1 -10 8q-2 10 -2 44v5q0 34 2 44q3 9 10 8h66v521h-66q-7 -1 -10 8q-2 10 -2 44v5q0 34 2 44q3 9 10 8v0zM110 1000v0h49
q50 1 51 -12l108 -165q10 -16 -24 -14h-39q-35 0 -42 12l-133 165q-15 16 29 16v0v0v1z" />
    <glyph glyph-name="Iacute" unicode="&#xcd;" horiz-adv-x="415" 
d="M66 736v0h284q7 1 10 -8q2 -10 2 -44v-5q0 -34 -2 -44q-3 -9 -10 -8h-66v-521h66q7 1 10 -8q2 -10 2 -44v-5q0 -34 -2 -44q-3 -9 -10 -8h-284q-7 -1 -10 8q-2 10 -2 44v5q0 34 2 44q3 9 10 8h66v521h-66q-7 -1 -10 8q-2 10 -2 44v5q0 34 2 44q3 9 10 8v0zM264 1000v0h50
q44 0 29 -16l-133 -165q-8 -12 -42 -12h-39q-34 -2 -24 14l108 165q1 13 51 12v0v0v1v1z" />
    <glyph glyph-name="Icircumflex" unicode="&#xce;" horiz-adv-x="415" 
d="M66 736v0h284q7 1 10 -8q2 -10 2 -44v-5q0 -34 -2 -44q-3 -9 -10 -8h-66v-521h66q7 1 10 -8q2 -10 2 -44v-5q0 -34 -2 -44q-3 -9 -10 -8h-284q-7 -1 -10 8q-2 10 -2 44v5q0 34 2 44q3 9 10 8h66v521h-66q-7 -1 -10 8q-2 10 -2 44v5q0 34 2 44q3 9 10 8v0zM44 876v0l93 99
q13 18 63 16h14q51 2 63 -16l93 -99q15 -13 -12 -36l-10 -10q-26 -30 -38 -16l-104 90l-104 -90q-12 -14 -38 16l-10 10q-27 23 -13 36v0v0v1z" />
    <glyph glyph-name="Idieresis" unicode="&#xcf;" horiz-adv-x="415" 
d="M66 736v0h284q7 1 10 -8q2 -10 2 -44v-5q0 -34 -2 -44q-3 -9 -10 -8h-66v-521h66q7 1 10 -8q2 -10 2 -44v-5q0 -34 -2 -44q-3 -9 -10 -8h-284q-7 -1 -10 8q-2 10 -2 44v5q0 34 2 44q3 9 10 8h66v521h-66q-7 -1 -10 8q-2 10 -2 44v5q0 34 2 44q3 9 10 8v0zM20 891v0
q5 66 75 72q71 -6 75 -72q-4 -64 -75 -70q-70 6 -75 70v0zM244 891v0q4 66 74 72q73 -6 77 -72q-4 -64 -77 -70q-70 6 -74 70v0v0v1v-1z" />
    <glyph glyph-name="Eth" unicode="&#xd0;" horiz-adv-x="699" 
d="M132 736v0h155q192 2 281 -92q91 -90 95 -272q1 -188 -110 -294q-94 -84 -262 -78h-160q-54 -2 -47 16v301h-66q-8 -1 -11 9q-4 10 -4 44v10q0 34 4 44q3 10 11 9h66v289q-7 18 47 16v0zM236 616v0v-184h98q8 1 12 -9q3 -10 3 -44v-10q0 -34 -3 -44q-4 -10 -12 -9h-98
v-196h53q93 -4 157 47q62 62 62 204q-1 127 -48 182q-50 64 -168 64h-57v0v0v1z" />
    <glyph glyph-name="Ntilde" unicode="&#xd1;" horiz-adv-x="723" 
d="M134 736v0h6q42 0 55 -4t17 -12l183 -280q56 -85 80 -127q25 -42 40 -80q-3 40 -5 109q-2 70 -2 127v252q-2 8 11 12t54 4h7q74 1 67 -15v-705q2 -9 -8 -13q-11 -3 -51 -3h-6q-36 0 -50 3q-14 4 -19 14l-183 280q-58 88 -84 134q-27 45 -37 75q4 -40 6 -110t2 -126v-252
q8 -17 -65 -15h-6q-41 0 -55 3t-13 13v705q-2 10 8 13t50 3v0zM205 854v0l-4 4q-28 26 -16 38q46 62 118 68q40 -2 68 -18t52 -17q30 0 60 32q4 13 37 -19l4 -4q29 -26 17 -38q-46 -62 -118 -68q-38 2 -66 18t-52 17q-30 0 -61 -32q-4 -13 -37 19v0v0v1z" />
    <glyph glyph-name="Ograve" unicode="&#xd2;" horiz-adv-x="714" 
d="M366 624v0q-172 -4 -174 -262q0 -132 42 -192q42 -59 118 -58q172 4 174 262q0 132 -42 192q-42 59 -118 58v0zM368 748v0q139 2 224 -86q84 -88 86 -282q0 -180 -84 -284t-248 -106q-139 -2 -224 86q-84 88 -86 282q0 180 84 284t248 106v0zM260 1000v0h49q50 1 51 -12
l108 -165q10 -16 -24 -14h-39q-35 0 -42 12l-133 165q-15 16 29 16v0v0v1z" />
    <glyph glyph-name="Oacute" unicode="&#xd3;" horiz-adv-x="714" 
d="M366 624v0q-172 -4 -174 -262q0 -132 42 -192q42 -59 118 -58q172 4 174 262q0 132 -42 192q-42 59 -118 58v0zM368 748v0q139 2 224 -86q84 -88 86 -282q0 -180 -84 -284t-248 -106q-139 -2 -224 86q-84 88 -86 282q0 180 84 284t248 106v0zM412 1000v0h50q44 0 29 -16
l-133 -165q-8 -12 -42 -12h-39q-34 -2 -24 14l108 165q1 13 51 12v0v0v1v1z" />
    <glyph glyph-name="Ocircumflex" unicode="&#xd4;" horiz-adv-x="714" 
d="M366 624v0q-172 -4 -174 -262q0 -132 42 -192q42 -59 118 -58q172 4 174 262q0 132 -42 192q-42 59 -118 58v0zM368 748v0q139 2 224 -86q84 -88 86 -282q0 -180 -84 -284t-248 -106q-139 -2 -224 86q-84 88 -86 282q0 180 84 284t248 106v0zM192 876v0l93 99
q12 18 63 16h14q51 2 63 -16l93 -99q15 -13 -12 -36l-10 -10q-26 -30 -38 -16l-104 90l-104 -90q-12 -14 -38 16l-10 10q-27 23 -13 36v0v0v1z" />
    <glyph glyph-name="Otilde" unicode="&#xd5;" horiz-adv-x="714" 
d="M366 624v0q-172 -4 -174 -262q0 -132 42 -192q42 -59 118 -58q172 4 174 262q0 132 -42 192q-42 59 -118 58v0zM368 748v0q139 2 224 -86q84 -88 86 -282q0 -180 -84 -284t-248 -106q-139 -2 -224 86q-84 88 -86 282q0 180 84 284t248 106v0zM200 854v0l-4 4
q-29 26 -17 38q46 62 118 68q40 -2 68 -18t51 -17q30 0 61 32q4 13 37 -19l4 -4q29 -26 17 -38q-46 -62 -118 -68q-38 2 -66 18t-52 17q-30 0 -61 -32q-4 -13 -37 19v0v0v1z" />
    <glyph glyph-name="Odieresis" unicode="&#xd6;" horiz-adv-x="714" 
d="M366 624v0q-172 -4 -174 -262q0 -132 42 -192q42 -59 118 -58q172 4 174 262q0 132 -42 192q-42 59 -118 58v0zM368 748v0q139 2 224 -86q84 -88 86 -282q0 -180 -84 -284t-248 -106q-139 -2 -224 86q-84 88 -86 282q0 180 84 284t248 106v0zM168 891v0q5 66 75 72
q71 -6 75 -72q-4 -64 -75 -70q-70 6 -75 70v0zM392 891v0q4 66 74 72q73 -6 77 -72q-4 -64 -77 -70q-70 6 -74 70v0v0v1v-1z" />
    <glyph glyph-name="multiply" unicode="&#xd7;" horiz-adv-x="604" 
d="M119 528v0l10 10q42 44 46 27l127 -126l127 128q4 16 46 -26l10 -10q43 -42 27 -46l-128 -128l128 -127q16 -5 -27 -46l-10 -10q-42 -42 -46 -26l-127 128l-127 -127q-4 -16 -46 27l-10 10q-42 42 -26 46l127 126l-127 127q-16 4 26 46v0v0v1v-4z" />
    <glyph glyph-name="Oslash" unicode="&#xd8;" horiz-adv-x="714" 
d="M480 732v0l32 58q6 22 51 -2l14 -6q52 -22 34 -38l-38 -68q103 -86 106 -300q0 -180 -84 -284t-248 -106q-75 0 -135 24l-36 -66q-5 -12 -15 -12q-10 1 -36 13l-14 6q-50 22 -34 36l47 84q-86 88 -88 284q0 180 84 284t248 106q60 0 112 -16v0v3zM497 538v0l-221 -409
q32 -18 74 -18q172 4 174 262q0 106 -28 164v0zM208 225v0l210 391q-24 8 -52 8q-172 -4 -174 -262q0 -83 16 -137v0v0v1v-1z" />
    <glyph glyph-name="Ugrave" unicode="&#xd9;" horiz-adv-x="709" 
d="M137 736v0h12q77 1 71 -15v-444q0 -98 38 -134q34 -32 96 -31q63 0 98 36q39 38 40 130v444q-2 8 12 12t56 4h8q76 1 70 -15v-423q2 -164 -70 -233q-73 -76 -219 -76q-148 -1 -220 78q-62 60 -62 210v444q-2 8 12 12t56 4v0zM240 1000v0h50q50 1 51 -12l108 -165
q10 -16 -24 -14h-39q-35 0 -42 12l-133 165q-15 16 29 16v0v0v1v-3z" />
    <glyph glyph-name="Uacute" unicode="&#xda;" horiz-adv-x="709" 
d="M137 736v0h12q77 1 71 -15v-444q0 -98 38 -134q34 -32 96 -31q63 0 98 36q39 38 40 130v444q-2 8 12 12t56 4h8q76 1 70 -15v-423q2 -164 -70 -233q-73 -76 -219 -76q-148 -1 -220 78q-62 60 -62 210v444q-2 8 12 12t56 4v0zM424 1000v0h49q45 0 30 -16l-134 -165
q-7 -12 -42 -12h-38q-35 -2 -25 14l108 165q2 13 52 12v0v0v1v1z" />
    <glyph glyph-name="Ucircumflex" unicode="&#xdb;" horiz-adv-x="709" 
d="M137 736v0h12q77 1 71 -15v-444q0 -98 38 -134q34 -32 96 -31q63 0 98 36q39 38 40 130v444q-2 8 12 12t56 4h8q76 1 70 -15v-423q2 -164 -70 -233q-73 -76 -219 -76q-148 -1 -220 78q-62 60 -62 210v444q-2 8 12 12t56 4v0zM190 876v0l93 99q12 18 63 16h14q51 2 63 -16
l93 -99q14 -13 -12 -36l-10 -10q-26 -30 -38 -16l-103 90l-104 -90q-12 -14 -38 16l-10 10q-26 23 -12 36v0v0v1z" />
    <glyph glyph-name="Udieresis" unicode="&#xdc;" horiz-adv-x="709" 
d="M137 736v0h12q77 1 71 -15v-444q0 -98 38 -134q34 -32 96 -31q63 0 98 36q39 38 40 130v444q-2 8 12 12t56 4h8q76 1 70 -15v-423q2 -164 -70 -233q-73 -76 -219 -76q-148 -1 -220 78q-62 60 -62 210v444q-2 8 12 12t56 4v0zM168 891v0q5 66 75 72q71 -6 75 -72
q-4 -64 -75 -70q-70 6 -75 70v0zM388 891v0q4 66 74 72q73 -6 77 -72q-4 -64 -77 -70q-70 6 -74 70v0v0v1v-1z" />
    <glyph glyph-name="Yacute" unicode="&#xdd;" horiz-adv-x="605" 
d="M74 736v0h24q41 0 57 -4t20 -13l74 -153q41 -85 63 -149q22 62 62 149l72 154q2 8 14 12t53 4h22q41 0 53 -4t6 -13l-217 -434v-270q6 -17 -71 -15h-12q-42 0 -56 3q-14 4 -12 13v270l-215 432q-6 10 6 14t58 4v0h-1zM410 1000v0h50q44 0 29 -16l-133 -165
q-8 -12 -42 -12h-39q-34 -2 -24 14l108 165q1 13 51 12v0v0v1v1z" />
    <glyph glyph-name="Thorn" unicode="&#xde;" horiz-adv-x="588" 
d="M141 736v0h12q77 2 71 -14v-117h24q170 8 252 -70q56 -56 56 -164q0 -106 -66 -176q-68 -69 -207 -71q-34 0 -60 2v-111q6 -16 -71 -14h-12q-42 0 -56 3q-14 4 -12 12v706q-2 9 12 12t56 3v0zM224 484v0v-237q25 -3 51 -3q73 0 103 38q26 34 26 87q0 48 -23 76
q-30 39 -116 38h-42v0v0v1h1z" />
    <glyph glyph-name="germandbls" unicode="&#xdf;" horiz-adv-x="705" 
d="M208 508v0v-492q2 -8 -10 -12t-56 -4h-5q-48 0 -59 4q-12 4 -10 12v500q4 146 72 204q72 72 198 72q109 -1 180 -52q70 -50 72 -134q-3 -61 -40 -99q-38 -38 -76 -64q-38 -27 -41 -55q4 -34 60 -50q57 -16 113 -49q57 -32 61 -115q-3 -90 -69 -136q-65 -46 -155 -46
q-119 4 -183 62q-14 6 9 46l10 18q24 45 38 31q60 -42 124 -44q86 4 86 49q-4 34 -61 51t-113 50q-57 32 -61 114q2 62 38 97q36 34 72 62t39 72q-5 72 -105 76q-58 -1 -90 -34q-43 -44 -41 -134v0v0v1z" />
    <glyph glyph-name="agrave" unicode="&#xe0;" horiz-adv-x="591" 
d="M392 490v0l4 36q-1 7 9 11q11 3 51 3h6q38 0 50 -3q11 -3 10 -11q0 -28 -1 -92t-1 -130v-62q0 -62 2 -122t5 -102q2 -10 -7 -14q-10 -4 -52 -4h-5q-36 0 -48 2t-14 10q-4 13 -6 35q-54 -56 -139 -59q-102 2 -160 74t-59 199q2 140 68 216t160 77q88 -5 128 -61v0z
M380 196v0v184q-32 46 -88 48q-110 -3 -109 -164q-1 -70 23 -112q24 -43 84 -44q52 2 76 30q16 21 14 57v0v1zM188 804v0h49q50 1 51 -12l109 -165q10 -16 -25 -14h-38q-35 0 -42 12l-134 165q-15 16 30 16v0v0v1v-3z" />
    <glyph glyph-name="aacute" unicode="&#xe1;" horiz-adv-x="591" 
d="M392 490v0l4 36q-1 7 9 11q11 3 51 3h6q38 0 50 -3q11 -3 10 -11q0 -28 -1 -92t-1 -130v-62q0 -62 2 -122t5 -102q2 -10 -7 -14q-10 -4 -52 -4h-5q-36 0 -48 2t-14 10q-4 13 -6 35q-54 -56 -139 -59q-102 2 -160 74t-59 199q2 140 68 216t160 77q88 -5 128 -61v0z
M380 196v0v184q-32 46 -88 48q-110 -3 -109 -164q-1 -70 23 -112q24 -43 84 -44q52 2 76 30q16 21 14 57v0v1zM354 804v0h49q45 0 29 -16l-133 -165q-7 -12 -42 -12h-39q-34 -2 -24 14l108 165q1 13 51 12v0v0v1z" />
    <glyph glyph-name="acircumflex" unicode="&#xe2;" horiz-adv-x="591" 
d="M392 490v0l4 36q-1 7 9 11q11 3 51 3h6q38 0 50 -3q11 -3 10 -11q0 -28 -1 -92t-1 -130v-62q0 -62 2 -122t5 -102q2 -10 -7 -14q-10 -4 -52 -4h-5q-36 0 -48 2t-14 10q-4 13 -6 35q-54 -56 -139 -59q-102 2 -160 74t-59 199q2 140 68 216t160 77q88 -5 128 -61v0z
M380 196v0v184q-32 46 -88 48q-110 -3 -109 -164q-1 -70 23 -112q24 -43 84 -44q52 2 76 30q16 21 14 57v0v1zM125 680v0l93 99q12 18 63 16h14q51 2 63 -16l93 -99q14 -13 -12 -36l-10 -10q-26 -30 -38 -16l-103 90l-104 -90q-12 -14 -38 16l-10 10q-26 23 -12 36v0v0v1z
" />
    <glyph glyph-name="atilde" unicode="&#xe3;" horiz-adv-x="591" 
d="M392 490v0l4 36q-1 7 9 11q11 3 51 3h6q38 0 50 -3q11 -3 10 -11q0 -28 -1 -92t-1 -130v-62q0 -62 2 -122t5 -102q2 -10 -7 -14q-10 -4 -52 -4h-5q-36 0 -48 2t-14 10q-4 13 -6 35q-54 -56 -139 -59q-102 2 -160 74t-59 199q2 140 68 216t160 77q88 -5 128 -61v0z
M380 196v0v184q-32 46 -88 48q-110 -3 -109 -164q-1 -70 23 -112q24 -43 84 -44q52 2 76 30q16 21 14 57v0v1zM140 658v0l-4 4q-29 26 -16 38q46 62 118 68q40 -2 68 -18t52 -17q29 0 60 32q4 13 37 -19l4 -4q29 -26 17 -38q-46 -62 -118 -68q-39 2 -67 18t-52 17
q-30 0 -61 -32q-4 -13 -37 19v0v0v1z" />
    <glyph glyph-name="adieresis" unicode="&#xe4;" horiz-adv-x="591" 
d="M392 490v0l4 36q-1 7 9 11q11 3 51 3h6q38 0 50 -3q11 -3 10 -11q0 -28 -1 -92t-1 -130v-62q0 -62 2 -122t5 -102q2 -10 -7 -14q-10 -4 -52 -4h-5q-36 0 -48 2t-14 10q-4 13 -6 35q-54 -56 -139 -59q-102 2 -160 74t-59 199q2 140 68 216t160 77q88 -5 128 -61v0z
M380 196v0v184q-32 46 -88 48q-110 -3 -109 -164q-1 -70 23 -112q24 -43 84 -44q52 2 76 30q16 21 14 57v0v1zM108 695v0q5 66 75 72q71 -6 75 -72q-4 -64 -75 -70q-70 6 -75 70v0zM332 695v0q4 66 74 72q73 -6 77 -72q-4 -64 -77 -70q-70 6 -74 70v0v0v1v-1z" />
    <glyph glyph-name="aring" unicode="&#xe5;" horiz-adv-x="591" 
d="M392 490v0l4 36q-1 7 9 11q11 3 51 3h6q38 0 50 -3q11 -3 10 -11q0 -28 -1 -92t-1 -130v-62q0 -62 2 -122t5 -102q2 -10 -7 -14q-10 -4 -52 -4h-5q-36 0 -48 2t-14 10q-4 13 -6 35q-54 -56 -139 -59q-102 2 -160 74t-59 199q2 140 68 216t160 77q88 -5 128 -61v0z
M380 196v0v184q-32 46 -88 48q-110 -3 -109 -164q-1 -70 23 -112q24 -43 84 -44q52 2 76 30q16 21 14 57v0v1zM180 716v0q2 48 35 79t81 33q48 -1 82 -32q33 -31 35 -79q-2 -48 -35 -80q-34 -31 -82 -33q-48 2 -81 34t-35 80v0v-2zM256 716v0q4 -38 40 -40q35 4 37 41
q-2 36 -37 40q-36 -2 -40 -40v0v0v1v-2z" />
    <glyph glyph-name="ae" unicode="&#xe6;" horiz-adv-x="888" 
d="M84 436v0l-6 14q-20 42 -6 46q42 26 96 41q54 14 103 14q120 -2 170 -60q64 58 164 60q117 -2 177 -78t60 -198q1 -58 -10 -54h-332q18 -111 136 -113q75 2 144 33q14 12 28 -30l9 -26q18 -45 -1 -49q-84 -46 -198 -49q-124 1 -193 74q-75 -71 -198 -74q-80 -1 -140 51
q-48 42 -50 124q2 88 61 132q60 44 159 44q56 -2 100 -17v28q0 82 -98 84q-71 -2 -140 -33q-17 -13 -35 33v0v3zM374 149v0v0q-12 33 -15 73q-42 14 -88 15q-89 2 -95 -69q2 -34 26 -49q25 -15 55 -15q73 2 117 44v0v1zM502 324v0h202q-10 102 -96 110q-86 -4 -107 -109v0v0
v1z" />
    <glyph glyph-name="ccedilla" unicode="&#xe7;" horiz-adv-x="517" 
d="M471 438v0l-10 -20q-26 -48 -36 -31q-52 39 -116 39q-52 1 -87 -37q-36 -37 -38 -119q0 -158 130 -161q61 1 117 29q12 16 32 -38l6 -14q21 -47 5 -49q-64 -46 -171 -52l-2 -24q104 0 112 -98q0 -46 -32 -79t-100 -35q-46 0 -76 13q-12 0 -2 38l3 12q6 35 22 27
q24 -6 46 -6q39 2 39 30q2 30 -44 31q-24 0 -59 -4l15 105q-59 15 -101 53q-82 76 -83 216q1 134 76 212q68 72 190 74q104 -2 176 -62q18 -7 -8 -52v0v0v1z" />
    <glyph glyph-name="egrave" unicode="&#xe8;" horiz-adv-x="570" 
d="M516 220v0h-332q18 -111 136 -113q75 2 145 33q14 12 28 -30l9 -26q18 -45 -1 -49q-84 -46 -198 -49q-122 1 -192 72q-70 72 -72 204q1 128 67 207t185 81q116 -2 176 -78t60 -198q1 -58 -11 -54v0zM184 324v0h202q-9 101 -95 109q-86 -4 -107 -108v0v-1zM192 804v0h49
q50 1 51 -12l108 -165q10 -16 -24 -14h-39q-35 0 -42 12l-133 165q-16 16 29 16v0v0v1z" />
    <glyph glyph-name="eacute" unicode="&#xe9;" horiz-adv-x="570" 
d="M516 220v0h-332q18 -111 136 -113q75 2 145 33q14 12 28 -30l9 -26q18 -45 -1 -49q-84 -46 -198 -49q-122 1 -192 72q-70 72 -72 204q1 128 67 207t185 81q116 -2 176 -78t60 -198q1 -58 -11 -54v0zM184 324v0h202q-9 101 -95 109q-86 -4 -107 -108v0v-1zM348 804v0h50
q44 0 29 -16l-133 -165q-8 -12 -42 -12h-39q-34 -2 -24 14l108 165q1 13 51 12v0v0v1v1z" />
    <glyph glyph-name="ecircumflex" unicode="&#xea;" horiz-adv-x="570" 
d="M516 220v0h-332q18 -111 136 -113q75 2 145 33q14 12 28 -30l9 -26q18 -45 -1 -49q-84 -46 -198 -49q-122 1 -192 72q-70 72 -72 204q1 128 67 207t185 81q116 -2 176 -78t60 -198q1 -58 -11 -54v0zM184 324v0h202q-9 101 -95 109q-86 -4 -107 -108v0v-1zM122 680v0
l93 99q12 18 63 16h14q51 2 63 -16l93 -99q14 -13 -13 -36l-10 -10q-26 -30 -38 -16l-104 90l-103 -90q-12 -14 -38 16l-10 10q-26 23 -12 36v0v0v1z" />
    <glyph glyph-name="edieresis" unicode="&#xeb;" horiz-adv-x="570" 
d="M516 220v0h-332q18 -111 136 -113q75 2 145 33q14 12 28 -30l9 -26q18 -45 -1 -49q-84 -46 -198 -49q-122 1 -192 72q-70 72 -72 204q1 128 67 207t185 81q116 -2 176 -78t60 -198q1 -58 -11 -54v0zM184 324v0h202q-9 101 -95 109q-86 -4 -107 -108v0v-1zM96 695v0
q5 66 75 72q71 -6 75 -72q-4 -64 -75 -70q-70 6 -75 70v0zM320 695v0q4 66 74 72q73 -6 77 -72q-4 -64 -77 -70q-70 6 -74 70v0v0v1v-1z" />
    <glyph glyph-name="igrave" unicode="&#xec;" horiz-adv-x="284" 
d="M140 540v0h5q44 0 56 -4t10 -12v-509q2 -8 -10 -12t-56 -4h-5q-48 0 -59 4q-12 4 -10 12v509q-2 8 10 12q11 4 59 4v0zM35 804v0h49q50 1 51 -12l108 -165q10 -16 -24 -14h-39q-34 0 -42 12l-133 165q-15 16 30 16v0v0v1v-3z" />
    <glyph glyph-name="iacute" unicode="&#xed;" horiz-adv-x="284" 
d="M140 540v0h5q44 0 56 -4t10 -12v-509q2 -8 -10 -12t-56 -4h-5q-48 0 -59 4q-12 4 -10 12v509q-2 8 10 12q11 4 59 4v0zM200 804v0h50q44 0 29 -16l-133 -165q-7 -12 -42 -12h-39q-34 -2 -24 14l108 165q1 13 51 12v0v0v1v1z" />
    <glyph glyph-name="icircumflex" unicode="&#xee;" horiz-adv-x="284" 
d="M140 540v0h5q44 0 56 -4t10 -12v-509q2 -8 -10 -12t-56 -4h-5q-48 0 -59 4q-12 4 -10 12v509q-2 8 10 12q11 4 59 4v0zM-22 680v0l93 99q12 18 63 16h14q51 2 63 -16l93 -99q15 -13 -12 -36l-10 -10q-26 -30 -38 -16l-104 90l-104 -90q-12 -14 -38 16l-10 10
q-27 23 -13 36v0v0v1z" />
    <glyph glyph-name="idieresis" unicode="&#xef;" horiz-adv-x="284" 
d="M140 540v0h5q44 0 56 -4t10 -12v-509q2 -8 -10 -12t-56 -4h-5q-48 0 -59 4q-12 4 -10 12v509q-2 8 10 12q11 4 59 4v0zM-44 695v0q5 66 75 72q71 -6 75 -72q-4 -64 -75 -70q-70 6 -75 70v0zM176 695v0q4 66 74 72q73 -6 77 -72q-4 -64 -77 -70q-70 6 -74 70v0v0v1v-1z
" />
    <glyph glyph-name="eth" unicode="&#xf0;" horiz-adv-x="598" 
d="M202 738v0l13 20q24 38 41 23q86 -43 146 -105l121 33q10 8 20 -30l4 -14q10 -32 -2 -32l-87 -24q92 -130 92 -294q0 -146 -68 -236t-206 -92q-114 2 -178 74t-65 193q3 125 70 192t161 68q64 -2 102 -26q-20 44 -48 80l-108 -28q-10 -7 -20 29l-4 14q-10 30 2 31l71 20
q-35 31 -73 53q-17 4 13 48v0zM401 368v0q-42 32 -104 35q-114 -1 -118 -151q6 -145 106 -145q122 -6 118 216q0 22 -3 44v0v0v1h1z" />
    <glyph glyph-name="ntilde" unicode="&#xf1;" horiz-adv-x="603" 
d="M122 540v0h6q36 0 48 -2t14 -10q4 -16 7 -42q52 62 150 66q96 -2 143 -56q50 -54 48 -166v-314q2 -8 -10 -12t-56 -4h-5q-48 0 -59 4q-12 4 -10 12v275q0 52 -4 76q-4 23 -16 35q-22 23 -70 23q-38 0 -69 -16q-30 -18 -30 -54q-2 -38 -2 -100v-239q2 -8 -10 -12t-56 -4
h-5q-48 0 -59 4q-12 4 -10 12v282q0 62 -2 122t-5 102q-2 10 9 14q10 4 52 4v0h1zM148 658v0l-4 4q-29 26 -17 38q46 62 118 68q40 -2 68 -18t51 -17q30 0 61 32q4 13 38 -19l4 -4q29 -26 16 -38q-46 -62 -118 -68q-38 2 -66 18t-52 17q-29 0 -60 -32q-4 -13 -37 19v0v0v1z
" />
    <glyph glyph-name="ograve" unicode="&#xf2;" horiz-adv-x="585" 
d="M300 552v0q116 0 181 -68q66 -68 67 -202q-4 -287 -264 -293q-116 0 -181 68q-66 68 -67 202q4 287 264 293v0zM298 432v0q-116 -5 -114 -166q-2 -154 102 -158q116 5 114 166q2 154 -102 158v0zM186 804v0h49q50 1 51 -12l108 -165q10 -16 -24 -14h-39q-34 0 -41 12
l-134 165q-15 16 30 16v0v0v1v-3z" />
    <glyph glyph-name="oacute" unicode="&#xf3;" horiz-adv-x="585" 
d="M300 552v0q116 0 181 -68q66 -68 67 -202q-4 -287 -264 -293q-116 0 -181 68q-66 68 -67 202q4 287 264 293v0zM298 432v0q-116 -5 -114 -166q-2 -154 102 -158q116 5 114 166q2 154 -102 158v0zM349 804v0h50q44 0 29 -16l-133 -165q-8 -12 -42 -12h-39q-34 -2 -24 14
l108 165q1 13 51 12v0v0v1v1z" />
    <glyph glyph-name="ocircumflex" unicode="&#xf4;" horiz-adv-x="585" 
d="M300 552v0q116 0 181 -68q66 -68 67 -202q-4 -287 -264 -293q-116 0 -181 68q-66 68 -67 202q4 287 264 293v0zM298 432v0q-116 -5 -114 -166q-2 -154 102 -158q116 5 114 166q2 154 -102 158v0zM128 680v0l93 99q12 18 63 16h14q51 2 63 -16l93 -99q15 -13 -12 -36
l-10 -10q-26 -30 -38 -16l-104 90l-104 -90q-12 -14 -38 16l-10 10q-27 23 -13 36v0v0v1z" />
    <glyph glyph-name="otilde" unicode="&#xf5;" horiz-adv-x="585" 
d="M300 552v0q116 0 181 -68q66 -68 67 -202q-4 -287 -264 -293q-116 0 -181 68q-66 68 -67 202q4 287 264 293v0zM298 432v0q-116 -5 -114 -166q-2 -154 102 -158q116 5 114 166q2 154 -102 158v0zM136 658v0l-4 4q-29 26 -17 38q46 62 118 68q40 -2 68 -18t51 -17
q30 0 61 32q4 13 37 -19l4 -4q29 -26 17 -38q-46 -62 -118 -68q-38 2 -66 18t-52 17q-30 0 -61 -32q-4 -13 -37 19v0v0v1z" />
    <glyph glyph-name="odieresis" unicode="&#xf6;" horiz-adv-x="585" 
d="M300 552v0q116 0 181 -68q66 -68 67 -202q-4 -287 -264 -293q-116 0 -181 68q-66 68 -67 202q4 287 264 293v0zM298 432v0q-116 -5 -114 -166q-2 -154 102 -158q116 5 114 166q2 154 -102 158v0zM104 695v0q5 66 75 72q71 -6 75 -72q-4 -64 -75 -70q-70 6 -75 70v0z
M328 695v0q4 66 74 72q73 -6 77 -72q-4 -64 -77 -70q-70 6 -74 70v0v0v1v-1z" />
    <glyph glyph-name="divide" unicode="&#xf7;" horiz-adv-x="604" 
d="M64 416v0h477q8 1 12 -9t4 -44v-15q0 -34 -4 -44t-12 -9h-477q-8 -1 -12 9t-4 44v15q0 34 4 44t12 9v0zM212 130v0q6 79 88 86q83 -7 89 -86q-6 -78 -89 -86q-82 8 -88 86v0zM212 582v0q6 79 88 86q83 -7 89 -86q-6 -78 -89 -86q-82 8 -88 86v0v0v1v-1z" />
    <glyph glyph-name="oslash" unicode="&#xf8;" horiz-adv-x="585" 
d="M379 542v0l33 60q5 12 15 12t37 -13l14 -6q52 -22 34 -38l-38 -67q73 -68 74 -210q-4 -287 -264 -293q-39 0 -71 8l-32 -61q-5 -12 -15 -12t-37 13l-14 6q-50 20 -34 36l34 64q-76 68 -78 216q4 287 264 293q42 0 78 -10v0v2zM192 187v0l126 243q-10 2 -22 2
q-116 -5 -114 -166q0 -46 9 -79v0h1zM394 342v0l-121 -232q6 -2 14 -2q116 5 114 166q0 38 -7 68v0v0v1v-1z" />
    <glyph glyph-name="ugrave" unicode="&#xf9;" horiz-adv-x="601" 
d="M132 540v0h5q44 0 56 -4t10 -12v-275q0 -52 4 -76q4 -23 16 -35q22 -23 68 -23q38 0 68 16q29 18 29 54q2 38 2 100v239q-2 8 10 12q11 4 59 4h5q44 0 56 -4t10 -12v-282q0 -62 2 -122t5 -102q2 -10 -9 -14q-10 -4 -52 -4h-6q-36 0 -48 2t-14 10q-4 16 -7 42
q-52 -62 -149 -65q-95 2 -141 56q-50 54 -48 166v314q-2 8 10 12q11 4 59 4v0v-1zM190 804v0h49q50 1 51 -12l108 -165q10 -16 -24 -14h-39q-35 0 -42 12l-134 165q-15 16 30 16v0v0v1z" />
    <glyph glyph-name="uacute" unicode="&#xfa;" horiz-adv-x="601" 
d="M132 540v0h5q44 0 56 -4t10 -12v-275q0 -52 4 -76q4 -23 16 -35q22 -23 68 -23q38 0 68 16q29 18 29 54q2 38 2 100v239q-2 8 10 12q11 4 59 4h5q44 0 56 -4t10 -12v-282q0 -62 2 -122t5 -102q2 -10 -9 -14q-10 -4 -52 -4h-6q-36 0 -48 2t-14 10q-4 16 -7 42
q-52 -62 -149 -65q-95 2 -141 56q-50 54 -48 166v314q-2 8 10 12q11 4 59 4v0v-1zM364 804v0h49q45 0 30 -16l-134 -165q-7 -12 -41 -12h-39q-34 -2 -24 14l108 165q1 13 51 12v0v0v1v1z" />
    <glyph glyph-name="ucircumflex" unicode="&#xfb;" horiz-adv-x="601" 
d="M132 540v0h5q44 0 56 -4t10 -12v-275q0 -52 4 -76q4 -23 16 -35q22 -23 68 -23q38 0 68 16q29 18 29 54q2 38 2 100v239q-2 8 10 12q11 4 59 4h5q44 0 56 -4t10 -12v-282q0 -62 2 -122t5 -102q2 -10 -9 -14q-10 -4 -52 -4h-6q-36 0 -48 2t-14 10q-4 16 -7 42
q-52 -62 -149 -65q-95 2 -141 56q-50 54 -48 166v314q-2 8 10 12q11 4 59 4v0v-1zM136 680v0l94 99q12 18 63 16h14q51 2 63 -16l94 -99q14 -13 -13 -36l-10 -10q-26 -30 -38 -16l-104 90l-104 -90q-12 -14 -38 16l-10 10q-27 23 -13 36v0v0v1z" />
    <glyph glyph-name="udieresis" unicode="&#xfc;" horiz-adv-x="601" 
d="M132 540v0h5q44 0 56 -4t10 -12v-275q0 -52 4 -76q4 -23 16 -35q22 -23 68 -23q38 0 68 16q29 18 29 54q2 38 2 100v239q-2 8 10 12q11 4 59 4h5q44 0 56 -4t10 -12v-282q0 -62 2 -122t5 -102q2 -10 -9 -14q-10 -4 -52 -4h-6q-36 0 -48 2t-14 10q-4 16 -7 42
q-52 -62 -149 -65q-95 2 -141 56q-50 54 -48 166v314q-2 8 10 12q11 4 59 4v0v-1zM112 695v0q5 66 75 72q71 -6 75 -72q-4 -64 -75 -70q-70 6 -75 70v0zM336 695v0q4 66 74 72q73 -6 77 -72q-4 -64 -77 -70q-70 6 -74 70v0v0v1v-1z" />
    <glyph glyph-name="yacute" unicode="&#xfd;" horiz-adv-x="545" 
d="M89 540v0h14q44 0 56 -4t14 -12l64 -200q32 -102 46 -184q16 82 44 181l60 202q2 8 14 12t51 4h14q45 0 56 -4t7 -14l-176 -511q-42 -130 -101 -190q-60 -60 -158 -59q-72 2 -110 26q-12 4 2 49l4 15q12 50 32 40q30 -9 64 -11q41 -2 71 23q30 26 56 96l-184 524
q-4 10 7 14q12 4 58 4v0zM356 804v0h49q45 0 29 -16l-133 -165q-7 -12 -42 -12h-39q-34 -2 -24 14l108 165q1 13 51 12v0v0v1z" />
    <glyph glyph-name="thorn" unicode="&#xfe;" horiz-adv-x="593" 
d="M136 780v0h5q44 0 56 -4t10 -12v-266q52 52 134 54q98 -2 156 -74t59 -199q-2 -138 -64 -214t-164 -77q-71 1 -119 40v-241q2 -8 -10 -12t-56 -4h-5q-48 0 -59 4q-12 4 -10 12v978q-2 8 10 12q11 4 59 4v0zM208 350v0v-202q39 -39 90 -39q110 3 110 171q-2 90 -34 124
q-30 32 -76 30q-48 -1 -77 -27q-16 -18 -14 -56v0v0v1z" />
    <glyph glyph-name="ydieresis" unicode="&#xff;" horiz-adv-x="543" 
d="M87 540v0h14q44 0 56 -4t14 -12l64 -200q32 -102 46 -184q16 82 44 181l60 202q2 8 14 12t52 4h14q45 0 56 -4t7 -14l-176 -511q-42 -130 -101 -190q-60 -60 -158 -59q-72 2 -110 26q-13 4 2 49l4 15q12 50 32 40q30 -9 64 -11q40 -2 70 23q30 26 56 96l-184 524
q-4 10 7 14q12 4 58 4v0zM84 695v0q5 66 75 72q71 -6 75 -72q-4 -64 -75 -70q-70 6 -75 70v0zM308 695v0q4 66 74 72q73 -6 77 -72q-4 -64 -77 -70q-70 6 -74 70v0v0v1v-1z" />
    <glyph glyph-name="circumflex" unicode="&#x2c6;" horiz-adv-x="358" 
d="M16 680v0l93 99q12 18 63 16h14q51 2 63 -16l93 -99q14 -13 -13 -36l-10 -10q-26 -30 -38 -16l-104 90l-103 -90q-12 -14 -38 16l-10 10q-26 23 -12 36v0v0v1z" />
    <glyph glyph-name="tilde" unicode="&#x2dc;" horiz-adv-x="358" 
d="M24 658v0l-4 4q-29 26 -17 38q46 62 118 68q39 -2 67 -18t51 -17q30 0 61 32q4 13 37 -19l4 -4q29 -26 17 -38q-46 -62 -118 -68q-38 2 -66 18t-52 17q-30 0 -61 -32q-4 -13 -37 19v0v0v1v-1z" />
    <glyph glyph-name="endash" unicode="&#x2013;" horiz-adv-x="512" 
d="M14 348v0h483q8 1 11 -9q4 -10 4 -44v-6q0 -34 -4 -44q-3 -10 -11 -9h-483q-8 -1 -11 9q-4 10 -4 44v6q0 34 4 44q3 10 11 9v0v0v1v-1z" />
    <glyph glyph-name="emdash" unicode="&#x2014;" horiz-adv-x="1024" 
d="M14 348v0h995q8 1 11 -9q4 -10 4 -44v-6q0 -34 -4 -44q-3 -10 -11 -9h-995q-8 -1 -11 9q-4 10 -4 44v6q0 34 4 44q3 10 11 9v0v0v1v-1z" />
    <glyph glyph-name="quoteleft" unicode="&#x2018;" horiz-adv-x="281" 
d="M204 739v0l16 -16q18 -12 5 -26q-64 -89 -57 -124q3 -33 23 -50t24 -53q0 -28 -22 -50t-58 -23q-86 6 -92 102q5 130 129 243q14 14 30 -1v0v0v1z" />
    <glyph glyph-name="quoteright" unicode="&#x2019;" horiz-adv-x="281" 
d="M76 405v0l-16 16q-18 12 -5 26q64 89 57 124q-3 33 -23 50t-24 53q0 28 22 50t58 23q86 -6 92 -102q-5 -130 -129 -243q-14 -14 -30 1v0v0v1z" />
    <glyph glyph-name="quotesinglbase" unicode="&#x201a;" horiz-adv-x="281" 
d="M76 -251v0l-16 16q-18 12 -5 26q64 89 57 124q-3 33 -23 50t-24 53q0 28 22 50t58 23q86 -6 92 -102q-5 -130 -129 -243q-14 -14 -30 1v0v0v1z" />
    <glyph glyph-name="quotedblleft" unicode="&#x201c;" horiz-adv-x="501" 
d="M424 739v0l16 -16q18 -12 5 -26q-64 -89 -57 -124q3 -33 23 -50t24 -53q0 -28 -22 -50t-58 -23q-86 6 -92 102q5 130 129 243q14 14 30 -1v0zM204 739v0l16 -16q18 -12 4 -26q-63 -89 -56 -124q3 -33 23 -50t24 -53q0 -28 -22 -50t-58 -23q-86 6 -92 102q5 130 129 243
q14 14 30 -1v0v0v1z" />
    <glyph glyph-name="quotedblright" unicode="&#x201d;" horiz-adv-x="501" 
d="M76 405v0l-16 16q-18 12 -5 26q64 89 57 124q-3 33 -23 50t-24 53q0 28 22 50t58 23q86 -6 92 -102q-5 -130 -129 -243q-14 -14 -30 1v0zM296 405v0l-16 16q-18 12 -5 26q64 89 57 124q-3 33 -23 50t-24 53q0 28 22 50t58 23q86 -6 92 -102q-5 -130 -129 -243
q-14 -14 -30 1v0v0v1z" />
    <glyph glyph-name="quotedblbase" unicode="&#x201e;" horiz-adv-x="501" 
d="M76 -251v0l-16 16q-18 12 -5 26q64 89 57 124q-3 33 -23 50t-24 53q0 28 22 50t58 23q86 -6 92 -102q-5 -130 -129 -243q-14 -14 -30 1v0zM296 -251v0l-16 16q-18 12 -5 26q64 89 57 124q-3 33 -23 50t-24 53q0 28 22 50t58 23q86 -6 92 -102q-5 -130 -129 -243
q-14 -14 -30 1v0v0v1z" />
    <glyph glyph-name="dagger" unicode="&#x2020;" horiz-adv-x="493" 
d="M240 736v0h11q42 0 52 -4q11 -4 9 -12v-206h146q8 1 12 -9q3 -10 3 -44v-15q0 -34 -3 -44q-4 -10 -12 -9h-146v-521q2 -8 -9 -12q-10 -4 -52 -4h-11q-40 0 -50 4t-8 12v521h-146q-8 -1 -12 9q-3 10 -3 44v15q0 34 3 44q4 10 12 9h146v206q-2 8 8 12t50 4v0v0v1v-1z" />
    <glyph glyph-name="daggerdbl" unicode="&#x2021;" horiz-adv-x="513" 
d="M252 736v0h11q42 0 52 -4q11 -4 9 -12v-206h146q8 1 12 -9q3 -10 3 -44v-15q0 -34 -3 -44q-4 -10 -12 -9h-146v-193h146q8 1 12 -9q3 -10 3 -44v-15q0 -34 -3 -44q-4 -10 -12 -9h-146v-209q2 -8 -9 -12q-10 -4 -52 -4h-11q-40 0 -50 4t-8 12v209h-146q-8 -1 -12 9
q-3 10 -3 44v15q0 34 3 44q4 10 12 9h146v193h-146q-8 -1 -12 9q-3 10 -3 44v15q0 34 3 44q4 10 12 9h146v206q-2 8 8 12t50 4v0v0v1v-1z" />
    <glyph glyph-name="bullet" unicode="&#x2022;" horiz-adv-x="364" 
d="M180 520v0q61 -2 101 -42t42 -101q-2 -60 -42 -100t-101 -42q-59 2 -98 42q-40 40 -42 100q2 61 42 101q39 40 98 42v0v0v1v-1z" />
    <glyph glyph-name="ellipsis" unicode="&#x2026;" horiz-adv-x="734" 
d="M36 74v0q6 79 88 86q83 -7 89 -86q-6 -78 -89 -86q-82 8 -88 86v0zM280 74v0q6 79 88 86q83 -7 89 -86q-6 -78 -89 -86q-82 8 -88 86v0zM524 74v0q6 79 88 86q83 -7 89 -86q-6 -78 -89 -86q-82 8 -88 86v0v0v1v-1z" />
    <glyph glyph-name="perthousand" unicode="&#x2030;" horiz-adv-x="1399" 
d="M239 656v0q-72 -2 -72 -123q2 -122 65 -118q72 2 72 123q-2 122 -65 118v0zM240 748v0q78 0 126 -52t50 -154q-2 -106 -52 -162t-133 -56q-78 0 -126 52t-50 154q2 106 52 162t133 56v0zM730 736v0h2q43 0 51 -4t0 -14l-446 -701q-5 -19 -73 -17h-7q-64 0 -46 18l446 701
q6 10 20 14q15 4 52 4v0zM759 320v0v0q-72 -2 -72 -122q2 -121 65 -117q72 2 72 122q-2 122 -65 118v0v-1zM760 410v0q78 0 126 -52t50 -154q-2 -106 -52 -162t-133 -56q-78 0 -126 52t-50 154q2 106 52 162t133 56v0zM1167 320v0q-72 -2 -72 -122q2 -121 65 -117
q72 2 72 122q-2 121 -65 117v0zM1168 410v0q78 0 126 -52t50 -154q-2 -106 -52 -162t-133 -56q-78 0 -126 52t-50 154q2 106 52 162t133 56v0v0v1v-1z" />
    <glyph glyph-name="guilsinglleft" unicode="&#x2039;" horiz-adv-x="330" 
d="M236 532v0l16 -9q44 -24 31 -40l-108 -174l108 -174q13 -16 -31 -40l-16 -9q-42 -24 -50 -4l-131 190q-11 14 -11 34v6q0 20 11 34l131 190q8 20 50 -4v0v0v1v-1z" />
    <glyph glyph-name="guilsinglright" unicode="&#x203a;" horiz-adv-x="330" 
d="M77 524v0l16 9q42 24 50 4l131 -190q11 -14 11 -34v-6q0 -20 -11 -34l-131 -190q-8 -20 -50 4l-16 9q-44 24 -31 40l108 174l-108 174q-13 16 31 40v0v0v1v-1z" />
    <glyph glyph-name="Euro" unicode="&#x20ac;" horiz-adv-x="604" 
d="M39 492v0h70q25 118 97 186t189 70q108 0 182 -55q27 -12 -3 -54l-12 -18q-26 -46 -36 -31q-62 38 -124 36q-112 -2 -146 -133h167q8 2 12 -6t4 -41v-1q0 -33 -4 -41t-12 -6h-179q-2 -16 -2 -32t2 -30h179q8 2 12 -6t4 -41v-1q0 -33 -4 -41t-12 -6h-168q30 -126 150 -129
q64 -1 124 31q16 16 36 -30l9 -20q24 -42 0 -52q-74 -52 -192 -56q-240 8 -280 253h-68q-8 -2 -12 6t-4 41v1q0 33 4 41t12 6h58v26q0 18 2 36h-60q-8 -2 -12 6t-4 41v1q0 33 4 41t12 6v0v0v1z" />
    <glyph glyph-name="trademark" unicode="&#x2122;" horiz-adv-x="864" 
d="M25 736v0h295q10 7 9 -31v-25q1 -37 -9 -32h-96v-316q3 -10 -39 -8h-27q-44 -2 -38 8v316h-96q-11 -6 -10 32v25q-1 39 10 31v0h1zM415 736v0h47q40 1 40 -11l54 -130q26 -62 36 -98q9 38 33 96l54 132q2 6 8 8q7 2 32 2h45q47 1 42 -9l14 -394q1 -5 -6 -7q-6 -2 -32 -2
h-25q-44 -1 -38 7l-2 142q-2 71 0 123q-16 -52 -46 -123l-31 -76q3 -10 -35 -9h-26q-40 0 -36 9l-32 74q-31 76 -47 124q4 -58 2 -134l-4 -131q5 -9 -36 -7h-24q-44 -2 -36 8l16 394q-6 11 38 9v0v0v1z" />
  </font>
</defs>
</svg>
